_Griffith_Gothic-Thin_Italic_WebTT.ufo
<glyph name="exclam" format="1">
  <advance width="471.04"/>
  <unicode hex="0021"/>
  <outline>
    <contour>
      <point x="123" y="141" type="qcurve" smooth="yes"/>
      <point x="156.582089552" y="141.0"/>
      <point x="201.0" y="97.328358209"/>
      <point x="201" y="63" type="qcurve" smooth="yes"/>
      <point x="201.0" y="29.4179104478"/>
      <point x="156.582089552" y="-14.0"/>
      <point x="123" y="-14" type="qcurve" smooth="yes"/>
      <point x="89.4179104478" y="-14.0"/>
      <point x="45.0" y="29.4179104478"/>
      <point x="45" y="63" type="qcurve" smooth="yes"/>
      <point x="45.0" y="97.328358209"/>
      <point x="89.4179104478" y="141.0"/>
    </contour>
    <contour>
      <point x="416" y="1475" type="line"/>
      <point x="526" y="1475" type="line"/>
      <point x="223" y="406" type="line"/>
      <point x="186" y="406" type="line"/>
    </contour>
  </outline>
</glyph>
<glyph name="quotedbl" format="1">
  <advance width="614.4"/>
  <unicode hex="0022"/>
  <outline>
    <contour>
      <point x="324" y="1475" type="line"/>
      <point x="422" y="1475" type="line"/>
      <point x="299" y="1075" type="line"/>
      <point x="246" y="1075" type="line"/>
    </contour>
    <contour>
      <point x="590" y="1475" type="line"/>
      <point x="688" y="1475" type="line"/>
      <point x="565" y="1075" type="line"/>
      <point x="512" y="1075" type="line"/>
    </contour>
  </outline>
</glyph>
<glyph name="numbersign" format="1">
  <advance width="1228.8"/>
  <unicode hex="0023"/>
  <outline>
    <contour>
      <point x="1049" y="1030" type="line"/>
      <point x="1286" y="1030" type="line"/>
      <point x="1270" y="961" type="line"/>
      <point x="1026" y="961" type="line"/>
      <point x="872" y="514" type="line"/>
      <point x="1126" y="514" type="line"/>
      <point x="1110" y="444" type="line"/>
      <point x="848" y="444" type="line"/>
      <point x="696" y="0" type="line"/>
      <point x="614" y="0" type="line"/>
      <point x="766" y="444" type="line"/>
      <point x="385" y="444" type="line"/>
      <point x="231" y="0" type="line"/>
      <point x="150" y="0" type="line"/>
      <point x="303" y="444" type="line"/>
      <point x="66" y="444" type="line"/>
      <point x="82" y="514" type="line"/>
      <point x="326" y="514" type="line"/>
      <point x="479" y="961" type="line"/>
      <point x="225" y="961" type="line"/>
      <point x="242" y="1030" type="line"/>
      <point x="504" y="1030" type="line"/>
      <point x="655" y="1475" type="line"/>
      <point x="737" y="1475" type="line"/>
      <point x="586" y="1030" type="line"/>
      <point x="967" y="1030" type="line"/>
      <point x="1120" y="1475" type="line"/>
      <point x="1202" y="1475" type="line"/>
    </contour>
    <contour>
      <point x="791" y="514" type="line"/>
      <point x="944" y="961" type="line"/>
      <point x="561" y="961" type="line"/>
      <point x="408" y="514" type="line"/>
    </contour>
  </outline>
</glyph>
<glyph name="dollar" format="1">
  <advance width="1095.68"/>
  <unicode hex="0024"/>
  <outline>
    <contour>
      <point x="823" y="1468" type="line"/>
      <point x="920.76119403" y="1448.59701493"/>
      <point x="1076.28358209" y="1342.59701493"/>
      <point x="1133" y="1262" type="qcurve"/>
      <point x="1069" y="1208" type="line"/>
      <point x="1018.25373134" y="1281.88059701"/>
      <point x="889.328358209" y="1378.85074627"/>
      <point x="805" y="1399" type="qcurve"/>
      <point x="655" y="795" type="line"/>
      <point x="822.164179104" y="701.71641791"/>
      <point x="965.0" y="514.910447761"/>
      <point x="965" y="397" type="qcurve" smooth="yes"/>
      <point x="965.0" y="214.164179104"/>
      <point x="683.552238806" y="-4.0"/>
      <point x="494" y="-4" type="qcurve" smooth="yes"/>
      <point x="484.298507463" y="-4.0"/>
      <point x="465.955223881" y="-3.49253731343"/>
      <point x="457" y="-2" type="qcurve"/>
      <point x="410" y="-195" type="line"/>
      <point x="336" y="-195" type="line"/>
      <point x="385" y="6" type="line"/>
      <point x="271.567164179" y="26.1492537313"/>
      <point x="83.9552238806" y="144.940298507"/>
      <point x="25" y="233" type="qcurve"/>
      <point x="88" y="287" type="line"/>
      <point x="146.208955224" y="201.179104478"/>
      <point x="300.76119403" y="90.4179104478"/>
      <point x="403" y="74" type="qcurve"/>
      <point x="571" y="754" type="line"/>
      <point x="436.671641791" y="827.134328358"/>
      <point x="285.0" y="991.611940299"/>
      <point x="285" y="1114" type="qcurve" smooth="yes"/>
      <point x="285.0" y="1280.41791045"/>
      <point x="532.373134328" y="1479.0"/>
      <point x="707" y="1479" type="qcurve" smooth="yes"/>
      <point x="717.447761194" y="1479.0"/>
      <point x="740.805970149" y="1478.49253731"/>
      <point x="752" y="1477" type="qcurve"/>
      <point x="772" y="1561" type="line"/>
      <point x="846" y="1561" type="line"/>
    </contour>
    <contour>
      <point x="592" y="831" type="qcurve"/>
      <point x="733" y="1407" type="line"/>
      <point x="725.537313433" y="1408.49253731"/>
      <point x="707.701492537" y="1409.0"/>
      <point x="698" y="1409" type="qcurve" smooth="yes"/>
      <point x="548.746268657" y="1409.0"/>
      <point x="371.0" y="1250.86567164"/>
      <point x="371" y="1124" type="qcurve" smooth="yes"/>
      <point x="371.0" y="1030.71641791"/>
      <point x="471.104477612" y="901.895522388"/>
    </contour>
    <contour>
      <point x="502" y="66" type="line" smooth="yes"/>
      <point x="688.567164179" y="66.0"/>
      <point x="879.0" y="256.671641791"/>
      <point x="879" y="391" type="qcurve" smooth="yes"/>
      <point x="879.0" y="484.28358209"/>
      <point x="772.820895522" y="637.149253731"/>
      <point x="637" y="717" type="qcurve"/>
      <point x="475" y="66" type="line"/>
    </contour>
  </outline>
</glyph>
<glyph name="ampersand" format="1">
  <advance width="1351.68"/>
  <unicode hex="0026"/>
  <outline>
    <contour>
      <point x="1233" y="774" type="qcurve"/>
      <point x="1300" y="729" type="line"/>
      <point x="1208.95522388" y="584.223880597"/>
      <point x="1008.2238806" y="322.253731343"/>
      <point x="903" y="223" type="qcurve"/>
      <point x="970.164179104" y="114.791044776"/>
      <point x="1085.35820896" y="61.0"/>
      <point x="1157" y="61" type="qcurve" smooth="yes"/>
      <point x="1177.14925373" y="61.0"/>
      <point x="1214.37313433" y="64.776119403"/>
      <point x="1239" y="70" type="qcurve"/>
      <point x="1219" y="-4" type="line"/>
      <point x="1195.86567164" y="-8.4776119403"/>
      <point x="1160.88059701" y="-12.0"/>
      <point x="1137" y="-12" type="qcurve" smooth="yes"/>
      <point x="1039.23880597" y="-12.0"/>
      <point x="904.179104478" y="59.2835820896"/>
      <point x="840" y="166" type="qcurve"/>
      <point x="737.014925373" y="78.6865671642"/>
      <point x="523.731343284" y="-20.0"/>
      <point x="420" y="-20" type="qcurve" smooth="yes"/>
      <point x="265.52238806" y="-20.0"/>
      <point x="61.0" y="161.343283582"/>
      <point x="61" y="330" type="qcurve" smooth="yes"/>
      <point x="61.0" y="499.402985075"/>
      <point x="293.208955224" y="787.71641791"/>
      <point x="535" y="881" type="qcurve"/>
      <point x="511.865671642" y="948.164179104"/>
      <point x="489.0" y="1061.34328358"/>
      <point x="489" y="1130" type="qcurve" smooth="yes"/>
      <point x="489.0" y="1281.49253731"/>
      <point x="684.223880597" y="1499.0"/>
      <point x="829" y="1499" type="qcurve" smooth="yes"/>
      <point x="940.940298507" y="1499.0"/>
      <point x="1061.0" y="1369.25373134"/>
      <point x="1061" y="1270" type="qcurve" smooth="yes"/>
      <point x="1061.0" y="1125.97014925"/>
      <point x="834.492537313" y="919.134328358"/>
      <point x="633" y="846" type="qcurve"/>
      <point x="704.641791045" y="650.47761194"/>
      <point x="815.014925373" y="388.253731343"/>
      <point x="868" y="289" type="qcurve"/>
      <point x="964.268656716" y="383.776119403"/>
      <point x="1148.67164179" y="635.194029851"/>
    </contour>
    <contour>
      <point x="430" y="53" type="qcurve" smooth="yes"/>
      <point x="523.28358209" y="53.0"/>
      <point x="713.208955224" y="146.910447761"/>
      <point x="805" y="229" type="qcurve"/>
      <point x="748.28358209" y="336.462686567"/>
      <point x="630.134328358" y="617.0"/>
      <point x="557" y="817" type="qcurve"/>
      <point x="349.537313433" y="737.895522388"/>
      <point x="152.0" y="481.76119403"/>
      <point x="152" y="334" type="qcurve" smooth="yes"/>
      <point x="152.0" y="205.641791045"/>
      <point x="304.626865672" y="53.0"/>
    </contour>
    <contour>
      <point x="612" y="907" type="qcurve"/>
      <point x="798.567164179" y="975.656716418"/>
      <point x="977.0" y="1142.59701493"/>
      <point x="977" y="1262" type="qcurve" smooth="yes"/>
      <point x="977.0" y="1338.11940299"/>
      <point x="896.880597015" y="1430.0"/>
      <point x="823" y="1430" type="qcurve" smooth="yes"/>
      <point x="711.805970149" y="1430.0"/>
      <point x="580.0" y="1253.14925373"/>
      <point x="580" y="1133" type="qcurve" smooth="yes"/>
      <point x="580.0" y="1071.80597015"/>
      <point x="595.582089552" y="962.223880597"/>
    </contour>
  </outline>
</glyph>
<glyph name="parenleft" format="1">
  <advance width="604.16"/>
  <unicode hex="0028"/>
  <outline>
    <contour>
      <point x="702" y="1505" type="qcurve"/>
      <point x="784" y="1505" type="line"/>
      <point x="528.776119403" y="1294.55223881"/>
      <point x="219.0" y="701.417910448"/>
      <point x="219" y="385" type="qcurve" smooth="yes"/>
      <point x="219.0" y="218.582089552"/>
      <point x="279.850746269" y="-47.9850746269"/>
      <point x="350" y="-195" type="qcurve"/>
      <point x="283" y="-195" type="line"/>
      <point x="218.820895522" y="-78.5820895522"/>
      <point x="129.0" y="227.567164179"/>
      <point x="129" y="391" type="qcurve" smooth="yes"/>
      <point x="129.0" y="736.52238806"/>
      <point x="462.447761194" y="1310.97014925"/>
    </contour>
  </outline>
</glyph>
<glyph name="parenright" format="1">
  <advance width="604.16"/>
  <unicode hex="0029"/>
  <outline>
    <contour>
      <point x="387" y="1505" type="line"/>
      <point x="451.179104478" y="1389.32835821"/>
      <point x="541.0" y="1083.43283582"/>
      <point x="541" y="920" type="qcurve" smooth="yes"/>
      <point x="541.0" y="574.47761194"/>
      <point x="207.298507463" y="-0.223880597015"/>
      <point x="-33" y="-195" type="qcurve"/>
      <point x="-115" y="-195" type="line"/>
      <point x="140.223880597" y="16.1940298507"/>
      <point x="451.0" y="609.582089552"/>
      <point x="451" y="926" type="qcurve" smooth="yes"/>
      <point x="451.0" y="1092.41791045"/>
      <point x="389.895522388" y="1358.73134328"/>
      <point x="319" y="1505" type="qcurve"/>
    </contour>
  </outline>
</glyph>
<glyph name="asterisk" format="1">
  <advance width="901.12"/>
  <unicode hex="002A"/>
  <outline>
    <contour>
      <point x="918" y="1276" type="line"/>
      <point x="946" y="1188" type="line"/>
      <point x="621" y="1110" type="line"/>
      <point x="844" y="856" type="line"/>
      <point x="768" y="801" type="line"/>
      <point x="588" y="1094" type="line"/>
      <point x="408" y="801" type="line"/>
      <point x="332" y="856" type="line"/>
      <point x="555" y="1110" type="line"/>
      <point x="229" y="1188" type="line"/>
      <point x="258" y="1276" type="line"/>
      <point x="569" y="1141" type="line"/>
      <point x="541" y="1475" type="line"/>
      <point x="635" y="1475" type="line"/>
      <point x="606" y="1141" type="line"/>
    </contour>
  </outline>
</glyph>
<glyph name="comma" format="1">
  <advance width="348.16"/>
  <unicode hex="002C"/>
  <outline>
    <contour>
      <point x="51" y="154" type="line"/>
      <point x="162" y="154" type="line"/>
      <point x="-55" y="-246" type="line"/>
      <point x="-119" y="-246" type="line"/>
    </contour>
  </outline>
</glyph>
<glyph name="period" format="1">
  <advance width="348.16"/>
  <unicode hex="002E"/>
  <outline>
    <contour>
      <point x="61" y="141" type="qcurve" smooth="yes"/>
      <point x="94.5820895522" y="141.0"/>
      <point x="139.0" y="97.328358209"/>
      <point x="139" y="63" type="qcurve" smooth="yes"/>
      <point x="139.0" y="29.4179104478"/>
      <point x="94.5820895522" y="-14.0"/>
      <point x="61" y="-14" type="qcurve" smooth="yes"/>
      <point x="27.4179104478" y="-14.0"/>
      <point x="-16.0" y="29.4179104478"/>
      <point x="-16" y="63" type="qcurve" smooth="yes"/>
      <point x="-16.0" y="97.328358209"/>
      <point x="27.4179104478" y="141.0"/>
    </contour>
  </outline>
</glyph>
<glyph name="slash" format="1">
  <advance width="737.28"/>
  <unicode hex="002F"/>
  <outline>
    <contour>
      <point x="852" y="1505" type="line"/>
      <point x="944" y="1505" type="line"/>
      <point x="-109" y="-195" type="line"/>
      <point x="-201" y="-195" type="line"/>
    </contour>
  </outline>
</glyph>
<glyph name="two" format="1">
  <advance width="1118.208"/>
  <unicode hex="0032"/>
  <outline>
    <contour>
      <point x="758" y="1499" type="qcurve" smooth="yes"/>
      <point x="924.417910448" y="1499.0"/>
      <point x="1110.0" y="1310.01492537"/>
      <point x="1110" y="1163" type="qcurve" smooth="yes"/>
      <point x="1110.0" y="973.447761194"/>
      <point x="853.746268657" y="720.955223881"/>
      <point x="653" y="612" type="qcurve" smooth="yes"/>
      <point x="434.343283582" y="493.343283582"/>
      <point x="180.223880597" y="218.776119403"/>
      <point x="125" y="74" type="qcurve"/>
      <point x="887" y="74" type="line"/>
      <point x="870" y="0" type="line"/>
      <point x="16" y="0" type="line"/>
      <point x="29" y="63" type="line"/>
      <point x="112.582089552" y="259.268656716"/>
      <point x="387.71641791" y="549.671641791"/>
      <point x="631" y="684" type="qcurve" smooth="yes"/>
      <point x="806.373134328" y="780.268656716"/>
      <point x="1020.0" y="1000.04477612"/>
      <point x="1020" y="1159" type="qcurve" smooth="yes"/>
      <point x="1020.0" y="1276.91044776"/>
      <point x="883.343283582" y="1425.0"/>
      <point x="752" y="1425" type="qcurve" smooth="yes"/>
      <point x="631.104477612" y="1425.0"/>
      <point x="428.776119403" y="1295.64179104"/>
      <point x="334" y="1174" type="qcurve"/>
      <point x="272" y="1214" type="line"/>
      <point x="368.268656716" y="1342.35820896"/>
      <point x="605.014925373" y="1499.0"/>
    </contour>
  </outline>
</glyph>
<glyph name="three" format="1">
  <advance width="1036.288"/>
  <unicode hex="0033"/>
  <outline>
    <contour>
      <point x="721" y="1499" type="qcurve" smooth="yes"/>
      <point x="856.820895522" y="1499.0"/>
      <point x="1018.0" y="1357.3880597"/>
      <point x="1018" y="1235" type="qcurve" smooth="yes"/>
      <point x="1018.0" y="1092.46268657"/>
      <point x="805.164179104" y="902.343283582"/>
      <point x="588" y="821" type="qcurve"/>
      <point x="592" y="813" type="line"/>
      <point x="744.985074627" y="814.492537313"/>
      <point x="948.0" y="674.47761194"/>
      <point x="948" y="520" type="qcurve" smooth="yes"/>
      <point x="948.0" y="277.462686567"/>
      <point x="423.044776119" y="-8.0"/>
      <point x="82" y="-8" type="qcurve" smooth="yes"/>
      <point x="29.7611940299" y="-8.0"/>
      <point x="-33.7313432836" y="-4.4776119403"/>
      <point x="-80" y="0" type="qcurve"/>
      <point x="-68" y="74" type="line"/>
      <point x="-24.7164179104" y="69.5223880597"/>
      <point x="35.2537313433" y="66.0"/>
      <point x="86" y="66" type="qcurve" smooth="yes"/>
      <point x="385.253731343" y="66.0"/>
      <point x="858.0" y="300.328358209"/>
      <point x="858" y="516" type="qcurve" smooth="yes"/>
      <point x="858.0" y="650.328358209"/>
      <point x="697.358208955" y="760.0"/>
      <point x="569" y="760" type="qcurve" smooth="yes"/>
      <point x="529.447761194" y="760.0"/>
      <point x="454.059701493" y="753.208955224"/>
      <point x="416" y="745" type="qcurve"/>
      <point x="408" y="815" type="line"/>
      <point x="701.28358209" y="905.298507463"/>
      <point x="928.0" y="1099.14925373"/>
      <point x="928" y="1229" type="qcurve" smooth="yes"/>
      <point x="928.0" y="1319.29850746"/>
      <point x="812.253731343" y="1425.0"/>
      <point x="713" y="1425" type="qcurve" smooth="yes"/>
      <point x="615.23880597" y="1425.0"/>
      <point x="421.985074627" y="1344.08955224"/>
      <point x="319" y="1262" type="qcurve"/>
      <point x="281" y="1319" type="line"/>
      <point x="378.76119403" y="1396.6119403"/>
      <point x="592.641791045" y="1499.0"/>
    </contour>
  </outline>
</glyph>
<glyph name="five" format="1">
  <advance width="1077.248"/>
  <unicode hex="0035"/>
  <outline>
    <contour>
      <point x="453" y="1475" type="line"/>
      <point x="1108" y="1475" type="line"/>
      <point x="1094" y="1401" type="line"/>
      <point x="512" y="1401" type="line"/>
      <point x="313" y="791" type="line"/>
      <point x="332" y="791" type="line"/>
      <point x="405.134328358" y="859.656716418"/>
      <point x="546.701492537" y="930.0"/>
      <point x="637" y="930" type="qcurve" smooth="yes"/>
      <point x="794.462686567" y="930.0"/>
      <point x="987.0" y="739.626865672"/>
      <point x="987" y="565" type="qcurve" smooth="yes"/>
      <point x="987" y="561" type="line" smooth="yes"/>
      <point x="987.0" y="314.731343284"/>
      <point x="633.23880597" y="-20.0"/>
      <point x="381" y="-20" type="qcurve" smooth="yes"/>
      <point x="251.149253731" y="-20.0"/>
      <point x="63.1044776119" y="38.9850746269"/>
      <point x="-16" y="86" type="qcurve"/>
      <point x="25" y="158" type="line"/>
      <point x="105.597014925" y="105.76119403"/>
      <point x="287.268656716" y="51.0"/>
      <point x="391" y="51" type="qcurve" smooth="yes"/>
      <point x="608.164179104" y="51.0"/>
      <point x="897.0" y="341.328358209"/>
      <point x="897" y="557" type="qcurve" smooth="yes"/>
      <point x="897" y="561" type="line" smooth="yes"/>
      <point x="897.0" y="706.52238806"/>
      <point x="749.388059701" y="860.0"/>
      <point x="627" y="860" type="qcurve" smooth="yes"/>
      <point x="529.23880597" y="860.0"/>
      <point x="402.149253731" y="785.686567164"/>
      <point x="332" y="723" type="qcurve"/>
      <point x="209" y="723" type="line"/>
    </contour>
  </outline>
</glyph>
<glyph name="seven" format="1">
  <advance width="974.848"/>
  <unicode hex="0037"/>
  <outline>
    <contour>
      <point x="264" y="1475" type="line"/>
      <point x="1157" y="1475" type="line"/>
      <point x="1143" y="1411" type="line"/>
      <point x="838.52238806" y="1107.26865672"/>
      <point x="350.850746269" y="338.059701493"/>
      <point x="221" y="0" type="qcurve"/>
      <point x="131" y="0" type="line"/>
      <point x="242.940298507" y="294.776119403"/>
      <point x="733.791044776" y="1089.05970149"/>
      <point x="1042" y="1401" type="qcurve"/>
      <point x="248" y="1401" type="line"/>
    </contour>
  </outline>
</glyph>
<glyph name="eight" format="1">
  <advance width="1179.648"/>
  <unicode hex="0038"/>
  <outline>
    <contour>
      <point x="760" y="1499" type="qcurve" smooth="yes"/>
      <point x="949.552238806" y="1499.0"/>
      <point x="1161.0" y="1308.97014925"/>
      <point x="1161" y="1153" type="qcurve" smooth="yes"/>
      <point x="1161.0" y="1001.50746269"/>
      <point x="943.417910448" y="811.582089552"/>
      <point x="827" y="778" type="qcurve"/>
      <point x="823" y="766" type="line"/>
      <point x="923.746268657" y="718.23880597"/>
      <point x="1057.0" y="550.358208955"/>
      <point x="1057" y="422" type="qcurve" smooth="yes"/>
      <point x="1057.0" y="241.402985075"/>
      <point x="756.402985075" y="-23.0"/>
      <point x="537" y="-23" type="qcurve" smooth="yes"/>
      <point x="328.791044776" y="-23.0"/>
      <point x="92.0" y="196.567164179"/>
      <point x="92" y="360" type="qcurve" smooth="yes"/>
      <point x="92.0" y="537.611940299"/>
      <point x="335.746268657" y="761.447761194"/>
      <point x="485" y="801" type="qcurve"/>
      <point x="489" y="815" type="line"/>
      <point x="399.447761194" y="865.746268657"/>
      <point x="301.0" y="1006.7761194"/>
      <point x="301" y="1112" type="qcurve" smooth="yes"/>
      <point x="301.0" y="1270.95522388"/>
      <point x="560.0" y="1499.0"/>
    </contour>
    <contour>
      <point x="541" y="51" type="qcurve" smooth="yes"/>
      <point x="723.835820896" y="51.0"/>
      <point x="967.0" y="268.059701493"/>
      <point x="967" y="430" type="qcurve" smooth="yes"/>
      <point x="967.0" y="568.805970149"/>
      <point x="773.940298507" y="760.0"/>
      <point x="612" y="760" type="qcurve" smooth="yes"/>
      <point x="438.119402985" y="760.0"/>
      <point x="182.0" y="531.955223881"/>
      <point x="182" y="373" type="qcurve" smooth="yes"/>
      <point x="182.0" y="231.955223881"/>
      <point x="364.880597015" y="51.0"/>
    </contour>
    <contour>
      <point x="696" y="813" type="qcurve" smooth="yes"/>
      <point x="863.164179104" y="813.0"/>
      <point x="1071.0" y="1023.17910448"/>
      <point x="1071" y="1159" type="qcurve" smooth="yes"/>
      <point x="1071.0" y="1275.41791045"/>
      <point x="905.731343284" y="1425.0"/>
      <point x="752" y="1425" type="qcurve" smooth="yes"/>
      <point x="590.059701493" y="1425.0"/>
      <point x="391.0" y="1246.32835821"/>
      <point x="391" y="1112" type="qcurve" smooth="yes"/>
      <point x="391.0" y="980.656716418"/>
      <point x="563.164179104" y="813.0"/>
    </contour>
  </outline>
</glyph>
<glyph name="nine" format="1">
  <advance width="1107.968"/>
  <unicode hex="0039"/>
  <outline>
    <contour>
      <point x="725" y="1499" type="qcurve" smooth="yes"/>
      <point x="895.895522388" y="1499.0"/>
      <point x="1114.0" y="1280.8358209"/>
      <point x="1114" y="1098" type="qcurve" smooth="yes"/>
      <point x="1114.0" y="765.910447761"/>
      <point x="645.820895522" y="177.611940299"/>
      <point x="360" y="0" type="qcurve"/>
      <point x="219" y="0" type="line"/>
      <point x="500.343283582" y="160.447761194"/>
      <point x="889.119402985" y="576.417910448"/>
      <point x="963" y="760" type="qcurve"/>
      <point x="948" y="760" type="line"/>
      <point x="851.731343284" y="663.731343284"/>
      <point x="665.925373134" y="569.0"/>
      <point x="551" y="569" type="qcurve" smooth="yes"/>
      <point x="384.582089552" y="569.0"/>
      <point x="174.0" y="764.447761194"/>
      <point x="174" y="954" type="qcurve" smooth="yes"/>
      <point x="174.0" y="1174.14925373"/>
      <point x="506.343283582" y="1499.0"/>
    </contour>
    <contour>
      <point x="569" y="643" type="qcurve" smooth="yes"/>
      <point x="746.611940299" y="643.0"/>
      <point x="1028.0" y="905.014925373"/>
      <point x="1028" y="1108" type="qcurve" smooth="yes"/>
      <point x="1028.0" y="1251.28358209"/>
      <point x="856.28358209" y="1425.0"/>
      <point x="713" y="1425" type="qcurve" smooth="yes"/>
      <point x="532.402985075" y="1425.0"/>
      <point x="264.0" y="1149.04477612"/>
      <point x="264" y="958" type="qcurve" smooth="yes"/>
      <point x="264.0" y="808.746268657"/>
      <point x="421.23880597" y="643.0"/>
    </contour>
  </outline>
</glyph>
<glyph name="colon" format="1">
  <advance width="389.12"/>
  <unicode hex="003A"/>
  <outline>
    <contour>
      <point x="82" y="141" type="qcurve" smooth="yes"/>
      <point x="115.582089552" y="141.0"/>
      <point x="160.0" y="97.328358209"/>
      <point x="160" y="63" type="qcurve" smooth="yes"/>
      <point x="160.0" y="29.4179104478"/>
      <point x="115.582089552" y="-14.0"/>
      <point x="82" y="-14" type="qcurve" smooth="yes"/>
      <point x="48.4179104478" y="-14.0"/>
      <point x="4.0" y="29.4179104478"/>
      <point x="4" y="63" type="qcurve" smooth="yes"/>
      <point x="4.0" y="97.328358209"/>
      <point x="48.4179104478" y="141.0"/>
    </contour>
    <contour>
      <point x="307" y="1057" type="qcurve" smooth="yes"/>
      <point x="340.582089552" y="1057.0"/>
      <point x="385.0" y="1012.58208955"/>
      <point x="385" y="979" type="qcurve" smooth="yes"/>
      <point x="385.0" y="945.417910448"/>
      <point x="340.582089552" y="901.0"/>
      <point x="307" y="901" type="qcurve" smooth="yes"/>
      <point x="273.417910448" y="901.0"/>
      <point x="229.0" y="945.417910448"/>
      <point x="229" y="979" type="qcurve" smooth="yes"/>
      <point x="229.0" y="1012.58208955"/>
      <point x="273.417910448" y="1057.0"/>
    </contour>
  </outline>
</glyph>
<glyph name="semicolon" format="1">
  <advance width="389.12"/>
  <unicode hex="003B"/>
  <outline>
    <contour>
      <point x="307" y="1057" type="qcurve" smooth="yes"/>
      <point x="340.582089552" y="1057.0"/>
      <point x="385.0" y="1012.58208955"/>
      <point x="385" y="979" type="qcurve" smooth="yes"/>
      <point x="385.0" y="945.417910448"/>
      <point x="340.582089552" y="901.0"/>
      <point x="307" y="901" type="qcurve" smooth="yes"/>
      <point x="273.417910448" y="901.0"/>
      <point x="229.0" y="945.417910448"/>
      <point x="229" y="979" type="qcurve" smooth="yes"/>
      <point x="229.0" y="1012.58208955"/>
      <point x="273.417910448" y="1057.0"/>
    </contour>
    <contour>
      <point x="51" y="154" type="line"/>
      <point x="162" y="154" type="line"/>
      <point x="-55" y="-246" type="line"/>
      <point x="-119" y="-246" type="line"/>
    </contour>
  </outline>
</glyph>
<glyph name="less" format="1">
  <advance width="1228.8"/>
  <unicode hex="003C"/>
  <outline>
    <contour>
      <point x="1157" y="309" type="line"/>
      <point x="1157" y="223" type="line"/>
      <point x="156" y="686" type="line"/>
      <point x="156" y="768" type="line"/>
      <point x="1157" y="1231" type="line"/>
      <point x="1157" y="1145" type="line"/>
      <point x="244" y="727" type="line"/>
    </contour>
  </outline>
</glyph>
<glyph name="greater" format="1">
  <advance width="1228.8"/>
  <unicode hex="003E"/>
  <outline>
    <contour>
      <point x="1176" y="768" type="line"/>
      <point x="1176" y="686" type="line"/>
      <point x="174" y="223" type="line"/>
      <point x="174" y="309" type="line"/>
      <point x="1087" y="727" type="line"/>
      <point x="174" y="1145" type="line"/>
      <point x="174" y="1231" type="line"/>
    </contour>
  </outline>
</glyph>
<glyph name="question" format="1">
  <advance width="870.4"/>
  <unicode hex="003F"/>
  <outline>
    <contour>
      <point x="643" y="1499" type="qcurve" smooth="yes"/>
      <point x="783.298507463" y="1499.0"/>
      <point x="944.0" y="1357.41791045"/>
      <point x="944" y="1241" type="qcurve" smooth="yes"/>
      <point x="944.0" y="1111.14925373"/>
      <point x="791.029850746" y="928.462686567"/>
      <point x="647" y="821" type="qcurve" smooth="yes"/>
      <point x="532.820895522" y="735.925373134"/>
      <point x="432.044776119" y="576.895522388"/>
      <point x="391" y="406" type="qcurve"/>
      <point x="334" y="406" type="line"/>
      <point x="373.552238806" y="608.985074627"/>
      <point x="485.641791045" y="787.71641791"/>
      <point x="614" y="881" type="qcurve" smooth="yes"/>
      <point x="718.47761194" y="955.626865672"/>
      <point x="854.0" y="1127.29850746"/>
      <point x="854" y="1237" type="qcurve" smooth="yes"/>
      <point x="854.0" y="1333.26865672"/>
      <point x="726.28358209" y="1425.0"/>
      <point x="633" y="1425" type="qcurve" smooth="yes"/>
      <point x="533.746268657" y="1425.0"/>
      <point x="380.880597015" y="1324.73134328"/>
      <point x="307" y="1221" type="qcurve"/>
      <point x="246" y="1262" type="line"/>
      <point x="325.104477612" y="1376.17910448"/>
      <point x="525.089552239" y="1499.0"/>
    </contour>
    <contour>
      <point x="293" y="141" type="qcurve" smooth="yes"/>
      <point x="326.582089552" y="141.0"/>
      <point x="371.0" y="97.328358209"/>
      <point x="371" y="63" type="qcurve" smooth="yes"/>
      <point x="371.0" y="29.4179104478"/>
      <point x="326.582089552" y="-14.0"/>
      <point x="293" y="-14" type="qcurve" smooth="yes"/>
      <point x="259.417910448" y="-14.0"/>
      <point x="215.0" y="29.4179104478"/>
      <point x="215" y="63" type="qcurve" smooth="yes"/>
      <point x="215.0" y="97.328358209"/>
      <point x="259.417910448" y="141.0"/>
    </contour>
  </outline>
</glyph>
<glyph name="A" format="1">
  <advance width="1343.488"/>
  <unicode hex="0041"/>
  <outline>
    <contour>
      <point x="977" y="1483" type="line"/>
      <point x="1147" y="0" type="line"/>
      <point x="1061" y="0" type="line"/>
      <point x="1014" y="412" type="line"/>
      <point x="281" y="412" type="line"/>
      <point x="29" y="0" type="line"/>
      <point x="-66" y="0" type="line"/>
      <point x="846" y="1483" type="line"/>
    </contour>
    <contour>
      <point x="326" y="485" type="line"/>
      <point x="1006" y="485" type="line"/>
      <point x="903" y="1405" type="line"/>
      <point x="887" y="1405" type="line"/>
    </contour>
  </outline>
</glyph>
<glyph name="B" format="1">
  <advance width="1230.848"/>
  <unicode hex="0042"/>
  <outline>
    <contour>
      <point x="836" y="1475" type="line" smooth="yes"/>
      <point x="1030.02985075" y="1475.0"/>
      <point x="1229.0" y="1315.31343284"/>
      <point x="1229" y="1178" type="qcurve" smooth="yes"/>
      <point x="1229.0" y="1029.49253731"/>
      <point x="1003.49253731" y="827.597014925"/>
      <point x="852" y="797" type="qcurve"/>
      <point x="852" y="788" type="line"/>
      <point x="965.432835821" y="758.149253731"/>
      <point x="1116.0" y="610.880597015"/>
      <point x="1116" y="487" type="qcurve" smooth="yes"/>
      <point x="1116.0" y="250.432835821"/>
      <point x="770.71641791" y="0.0"/>
      <point x="514" y="0" type="qcurve" smooth="yes"/>
      <point x="57" y="0" type="line"/>
      <point x="424" y="1475" type="line"/>
    </contour>
    <contour>
      <point x="508" y="74" type="line" smooth="yes"/>
      <point x="738.597014925" y="74.0"/>
      <point x="1024.0" y="276.52238806"/>
      <point x="1024" y="481" type="qcurve" smooth="yes"/>
      <point x="1024.0" y="592.940298507"/>
      <point x="864.059701493" y="758.0"/>
      <point x="676" y="758" type="qcurve" smooth="yes"/>
      <point x="336" y="758" type="line"/>
      <point x="164" y="74" type="line"/>
    </contour>
    <contour>
      <point x="690" y="831" type="line" smooth="yes"/>
      <point x="888.507462687" y="831.0"/>
      <point x="1137.0" y="1025.49253731"/>
      <point x="1137" y="1174" type="qcurve" smooth="yes"/>
      <point x="1137.0" y="1280.71641791"/>
      <point x="984.462686567" y="1401.0"/>
      <point x="827" y="1401" type="qcurve" smooth="yes"/>
      <point x="494" y="1401" type="line"/>
      <point x="352" y="831" type="line"/>
    </contour>
  </outline>
</glyph>
<glyph name="C" format="1">
  <advance width="1159.168"/>
  <unicode hex="0043"/>
  <outline>
    <contour>
      <point x="823" y="1499" type="qcurve" smooth="yes"/>
      <point x="1005.08955224" y="1499.0"/>
      <point x="1187.49253731" y="1264.97014925"/>
      <point x="1186" y="1059" type="qcurve"/>
      <point x="1104" y="1038" type="line"/>
      <point x="1102.50746269" y="1221.58208955"/>
      <point x="965.507462687" y="1425.0"/>
      <point x="817" y="1425" type="qcurve" smooth="yes"/>
      <point x="621.47761194" y="1425.0"/>
      <point x="332.686567164" y="1041.56716418"/>
      <point x="270" y="805" type="qcurve" smooth="yes"/>
      <point x="247.611940299" y="720.671641791"/>
      <point x="223.0" y="556.850746269"/>
      <point x="223" y="477" type="qcurve" smooth="yes"/>
      <point x="223" y="473" type="line" smooth="yes"/>
      <point x="223.0" y="299.119402985"/>
      <point x="368.059701493" y="49.0"/>
      <point x="530" y="49" type="qcurve" smooth="yes"/>
      <point x="669.552238806" y="49.0"/>
      <point x="876.895522388" y="241.820895522"/>
      <point x="956" y="406" type="qcurve"/>
      <point x="1032" y="373" type="line"/>
      <point x="940.208955224" y="184.940298507"/>
      <point x="685.940298507" y="-25.0"/>
      <point x="524" y="-25" type="qcurve" smooth="yes"/>
      <point x="334.447761194" y="-25.0"/>
      <point x="133.0" y="246.373134328"/>
      <point x="133" y="471" type="qcurve" smooth="yes"/>
      <point x="133" y="475" type="line" smooth="yes"/>
      <point x="133.0" y="545.149253731"/>
      <point x="149.343283582" y="675.671641791"/>
      <point x="168" y="760" type="qcurve" smooth="yes"/>
      <point x="230.686567164" y="1041.34328358"/>
      <point x="577.47761194" y="1499.0"/>
    </contour>
  </outline>
</glyph>
<glyph name="D" format="1">
  <advance width="1253.376"/>
  <unicode hex="0044"/>
  <outline>
    <contour>
      <point x="1214" y="942" type="qcurve" smooth="yes"/>
      <point x="1214" y="938" type="line" smooth="yes"/>
      <point x="1214.0" y="869.343283582"/>
      <point x="1201.43283582" y="753.194029851"/>
      <point x="1188" y="692" type="qcurve" smooth="yes"/>
      <point x="1114.86567164" y="372.597014925"/>
      <point x="651.835820896" y="0.0"/>
      <point x="369" y="0" type="qcurve" smooth="yes"/>
      <point x="57" y="0" type="line"/>
      <point x="424" y="1475" type="line"/>
      <point x="672" y="1475" type="line" smooth="yes"/>
      <point x="904.089552239" y="1475.0"/>
      <point x="1214.0" y="1214.3880597"/>
    </contour>
    <contour>
      <point x="1092" y="668" type="qcurve" smooth="yes"/>
      <point x="1106.92537313" y="725.462686567"/>
      <point x="1124.0" y="866.835820896"/>
      <point x="1124" y="934" type="qcurve" smooth="yes"/>
      <point x="1124" y="938" type="line" smooth="yes"/>
      <point x="1124.0" y="1168.59701493"/>
      <point x="867.492537313" y="1401.0"/>
      <point x="666" y="1401" type="qcurve" smooth="yes"/>
      <point x="496" y="1401" type="line"/>
      <point x="166" y="74" type="line"/>
      <point x="375" y="74" type="line" smooth="yes"/>
      <point x="619.029850746" y="74.0"/>
      <point x="1019.6119403" y="394.119402985"/>
    </contour>
  </outline>
</glyph>
<glyph name="E" format="1">
  <advance width="1126.4"/>
  <unicode hex="0045"/>
  <outline>
    <contour>
      <point x="424" y="1475" type="line"/>
      <point x="1251" y="1475" type="line"/>
      <point x="1233" y="1401" type="line"/>
      <point x="496" y="1401" type="line"/>
      <point x="348" y="811" type="line"/>
      <point x="977" y="811" type="line"/>
      <point x="961" y="737" type="line"/>
      <point x="332" y="737" type="line"/>
      <point x="166" y="74" type="line"/>
      <point x="928" y="74" type="line"/>
      <point x="909" y="0" type="line"/>
      <point x="57" y="0" type="line"/>
    </contour>
  </outline>
</glyph>
<glyph name="H" format="1">
  <advance width="1261.568"/>
  <unicode hex="0048"/>
  <outline>
    <contour>
      <point x="1221" y="1475" type="line"/>
      <point x="1311" y="1475" type="line"/>
      <point x="944" y="0" type="line"/>
      <point x="854" y="0" type="line"/>
      <point x="1038" y="737" type="line"/>
      <point x="332" y="737" type="line"/>
      <point x="147" y="0" type="line"/>
      <point x="57" y="0" type="line"/>
      <point x="424" y="1475" type="line"/>
      <point x="514" y="1475" type="line"/>
      <point x="348" y="811" type="line"/>
      <point x="1055" y="811" type="line"/>
    </contour>
  </outline>
</glyph>
<glyph name="I" format="1">
  <advance width="761.856"/>
  <unicode hex="0049"/>
  <outline>
    <contour>
      <point x="360" y="1475" type="line"/>
      <point x="877" y="1475" type="line"/>
      <point x="860" y="1411" type="line"/>
      <point x="647" y="1411" type="line"/>
      <point x="311" y="63" type="line"/>
      <point x="524" y="63" type="line"/>
      <point x="508" y="0" type="line"/>
      <point x="-8" y="0" type="line"/>
      <point x="8" y="63" type="line"/>
      <point x="221" y="63" type="line"/>
      <point x="557" y="1411" type="line"/>
      <point x="344" y="1411" type="line"/>
    </contour>
  </outline>
</glyph>
<glyph name="J" format="1">
  <advance width="956.416"/>
  <unicode hex="004A"/>
  <outline>
    <contour>
      <point x="924" y="1475" type="line"/>
      <point x="1014" y="1475" type="line"/>
      <point x="750" y="412" type="line" smooth="yes"/>
      <point x="696.268656716" y="197.820895522"/>
      <point x="471.925373134" y="-25.0"/>
      <point x="307" y="-25" type="qcurve" smooth="yes"/>
      <point x="168.194029851" y="-25.0"/>
      <point x="6.0" y="118.089552239"/>
      <point x="6" y="236" type="qcurve" smooth="yes"/>
      <point x="6.0" y="262.865671642"/>
      <point x="12.5373134328" y="322.417910448"/>
      <point x="20" y="356" type="qcurve"/>
      <point x="111" y="393" type="line"/>
      <point x="101.298507463" y="354.940298507"/>
      <point x="92.0" y="288.089552239"/>
      <point x="92" y="256" type="qcurve" smooth="yes"/>
      <point x="92.0" y="153.76119403"/>
      <point x="201.805970149" y="49.0"/>
      <point x="313" y="49" type="qcurve" smooth="yes"/>
      <point x="436.880597015" y="49.0"/>
      <point x="614.746268657" y="236.47761194"/>
      <point x="664" y="432" type="qcurve" smooth="yes"/>
    </contour>
  </outline>
</glyph>
<glyph name="K" format="1">
  <advance width="1165.312"/>
  <unicode hex="004B"/>
  <outline>
    <contour>
      <point x="1247" y="1475" type="line"/>
      <point x="1370" y="1475" type="line"/>
      <point x="528" y="793" type="line"/>
      <point x="1032" y="0" type="line"/>
      <point x="928" y="0" type="line"/>
      <point x="422" y="803" type="line"/>
      <point x="424" y="807" type="line"/>
    </contour>
    <contour>
      <point x="424" y="1475" type="line"/>
      <point x="514" y="1475" type="line"/>
      <point x="147" y="0" type="line"/>
      <point x="57" y="0" type="line"/>
    </contour>
  </outline>
</glyph>
<glyph name="N" format="1">
  <advance width="1302.528"/>
  <unicode hex="004E"/>
  <outline>
    <contour>
      <point x="1262" y="1475" type="line"/>
      <point x="1348" y="1475" type="line"/>
      <point x="981" y="0" type="line"/>
      <point x="848" y="0" type="line"/>
      <point x="504" y="1386" type="line"/>
      <point x="487" y="1386" type="line"/>
      <point x="143" y="0" type="line"/>
      <point x="57" y="0" type="line"/>
      <point x="424" y="1475" type="line"/>
      <point x="565" y="1475" type="line"/>
      <point x="905" y="104" type="line"/>
      <point x="922" y="104" type="line"/>
    </contour>
  </outline>
</glyph>
<glyph name="P" format="1">
  <advance width="1146.88"/>
  <unicode hex="0050"/>
  <outline>
    <contour>
      <point x="788" y="1475" type="line" smooth="yes"/>
      <point x="984.268656716" y="1475.0"/>
      <point x="1200.0" y="1301.92537313"/>
      <point x="1200" y="1137" type="qcurve" smooth="yes"/>
      <point x="1200.0" y="916.850746269"/>
      <point x="866.23880597" y="647.0"/>
      <point x="614" y="647" type="qcurve" smooth="yes"/>
      <point x="307" y="647" type="line"/>
      <point x="147" y="0" type="line"/>
      <point x="57" y="0" type="line"/>
      <point x="424" y="1475" type="line"/>
    </contour>
    <contour>
      <point x="604" y="721" type="line" smooth="yes"/>
      <point x="828.626865672" y="721.0"/>
      <point x="1108.0" y="938.223880597"/>
      <point x="1108" y="1133" type="qcurve" smooth="yes"/>
      <point x="1108.0" y="1257.62686567"/>
      <point x="946.656716418" y="1401.0"/>
      <point x="778" y="1401" type="qcurve" smooth="yes"/>
      <point x="496" y="1401" type="line"/>
      <point x="326" y="721" type="line"/>
    </contour>
  </outline>
</glyph>
<glyph name="S" format="1">
  <advance width="1128.448"/>
  <unicode hex="0053"/>
  <outline>
    <contour>
      <point x="723" y="1499" type="qcurve" smooth="yes"/>
      <point x="889.417910448" y="1499.0"/>
      <point x="1105.3880597" y="1325.95522388"/>
      <point x="1133" y="1167" type="qcurve"/>
      <point x="1051" y="1143" type="line"/>
      <point x="1023.3880597" y="1274.34328358"/>
      <point x="867.0" y="1425.0"/>
      <point x="717" y="1425" type="qcurve" smooth="yes"/>
      <point x="568.492537313" y="1425.0"/>
      <point x="395.0" y="1252.19402985"/>
      <point x="395" y="1141" type="qcurve" smooth="yes"/>
      <point x="395.0" y="1040.25373134"/>
      <point x="513.014925373" y="894.820895522"/>
      <point x="666" y="809" type="qcurve" smooth="yes"/>
      <point x="838.388059701" y="711.23880597"/>
      <point x="979.0" y="529.835820896"/>
      <point x="979" y="397" type="qcurve" smooth="yes"/>
      <point x="979.0" y="205.955223881"/>
      <point x="701.582089552" y="-25.0"/>
      <point x="518" y="-25" type="qcurve" smooth="yes"/>
      <point x="316.507462687" y="-25.0"/>
      <point x="69.6567164179" y="179.925373134"/>
      <point x="51" y="365" type="qcurve"/>
      <point x="135" y="389" type="line"/>
      <point x="150.671641791" y="218.104477612"/>
      <point x="356.597014925" y="49.0"/>
      <point x="526" y="49" type="qcurve" smooth="yes"/>
      <point x="693.164179104" y="49.0"/>
      <point x="889.0" y="250.194029851"/>
      <point x="889" y="389" type="qcurve" smooth="yes"/>
      <point x="889.0" y="492.731343284"/>
      <point x="769.970149254" y="645.686567164"/>
      <point x="614" y="733" type="qcurve" smooth="yes"/>
      <point x="466.23880597" y="817.328358209"/>
      <point x="305.0" y="991.955223881"/>
      <point x="305" y="1133" type="qcurve" smooth="yes"/>
      <point x="305.0" y="1289.71641791"/>
      <point x="548.373134328" y="1499.0"/>
    </contour>
  </outline>
</glyph>
<glyph name="T" format="1">
  <advance width="1122.304"/>
  <unicode hex="0054"/>
  <outline>
    <contour>
      <point x="276" y="1475" type="line"/>
      <point x="1317" y="1475" type="line"/>
      <point x="1298" y="1401" type="line"/>
      <point x="823" y="1401" type="line"/>
      <point x="475" y="0" type="line"/>
      <point x="385" y="0" type="line"/>
      <point x="733" y="1401" type="line"/>
      <point x="258" y="1401" type="line"/>
    </contour>
  </outline>
</glyph>
<glyph name="U" format="1">
  <advance width="1265.664"/>
  <unicode hex="0055"/>
  <outline>
    <contour>
      <point x="1241" y="1475" type="line"/>
      <point x="1323" y="1475" type="line"/>
      <point x="1073" y="469" type="line" smooth="yes"/>
      <point x="1010.31343284" y="216.76119403"/>
      <point x="735.597014925" y="-25.0"/>
      <point x="555" y="-25" type="qcurve" smooth="yes"/>
      <point x="378.880597015" y="-25.0"/>
      <point x="158.0" y="160.417910448"/>
      <point x="158" y="344" type="qcurve" smooth="yes"/>
      <point x="158.0" y="396.23880597"/>
      <point x="172.059701493" y="500.76119403"/>
      <point x="184" y="553" type="qcurve" smooth="yes"/>
      <point x="414" y="1475" type="line"/>
      <point x="504" y="1475" type="line"/>
      <point x="276" y="557" type="line" smooth="yes"/>
      <point x="262.567164179" y="498.791044776"/>
      <point x="248.0" y="394.268656716"/>
      <point x="248" y="348" type="qcurve" smooth="yes"/>
      <point x="248.0" y="207.701492537"/>
      <point x="407.507462687" y="49.0"/>
      <point x="559" y="49" type="qcurve" smooth="yes"/>
      <point x="709.0" y="49.0"/>
      <point x="939.029850746" y="253.895522388"/>
      <point x="995" y="483" type="qcurve" smooth="yes"/>
    </contour>
  </outline>
</glyph>
<glyph name="V" format="1">
  <advance width="1224.704"/>
  <unicode hex="0056"/>
  <outline>
    <contour>
      <point x="1300" y="1475" type="line"/>
      <point x="1395" y="1475" type="line"/>
      <point x="532" y="-16" type="line"/>
      <point x="422" y="-16" type="line"/>
      <point x="301" y="1475" type="line"/>
      <point x="387" y="1475" type="line"/>
      <point x="489" y="70" type="line"/>
      <point x="502" y="70" type="line"/>
    </contour>
  </outline>
</glyph>
<glyph name="W" format="1">
  <advance width="1974.272"/>
  <unicode hex="0057"/>
  <outline>
    <contour>
      <point x="1989" y="1475" type="line"/>
      <point x="2083" y="1475" type="line"/>
      <point x="1311" y="-12" type="line"/>
      <point x="1198" y="-12" type="line"/>
      <point x="1182" y="1378" type="line"/>
      <point x="1161" y="1378" type="line"/>
      <point x="453" y="-12" type="line"/>
      <point x="340" y="-12" type="line"/>
      <point x="309" y="1475" type="line"/>
      <point x="395" y="1475" type="line"/>
      <point x="410" y="80" type="line"/>
      <point x="426" y="80" type="line"/>
      <point x="1122" y="1475" type="line"/>
      <point x="1257" y="1475" type="line"/>
      <point x="1270" y="80" type="line"/>
      <point x="1286" y="80" type="line"/>
    </contour>
  </outline>
</glyph>
<glyph name="X" format="1">
  <advance width="1249.28"/>
  <unicode hex="0058"/>
  <outline>
    <contour>
      <point x="1280" y="1475" type="line"/>
      <point x="1384" y="1475" type="line"/>
      <point x="729" y="756" type="line"/>
      <point x="1049" y="0" type="line"/>
      <point x="954" y="0" type="line"/>
      <point x="670" y="700" type="line"/>
      <point x="43" y="0" type="line"/>
      <point x="-61" y="0" type="line"/>
      <point x="639" y="766" type="line"/>
      <point x="340" y="1475" type="line"/>
      <point x="434" y="1475" type="line"/>
      <point x="696" y="821" type="line"/>
    </contour>
  </outline>
</glyph>
<glyph name="Y" format="1">
  <advance width="1236.992"/>
  <unicode hex="0059"/>
  <outline>
    <contour>
      <point x="1331" y="1475" type="line"/>
      <point x="1434" y="1475" type="line"/>
      <point x="674" y="565" type="line"/>
      <point x="535" y="0" type="line"/>
      <point x="444" y="0" type="line"/>
      <point x="584" y="565" type="line"/>
      <point x="279" y="1475" type="line"/>
      <point x="373" y="1475" type="line"/>
      <point x="643" y="635" type="line"/>
    </contour>
  </outline>
</glyph>
<glyph name="Z" format="1">
  <advance width="1097.728"/>
  <unicode hex="005A"/>
  <outline>
    <contour>
      <point x="356" y="1475" type="line"/>
      <point x="1257" y="1475" type="line"/>
      <point x="1241" y="1411" type="line"/>
      <point x="68" y="74" type="line"/>
      <point x="907" y="74" type="line"/>
      <point x="889" y="0" type="line"/>
      <point x="-53" y="0" type="line"/>
      <point x="-37" y="63" type="line"/>
      <point x="1137" y="1401" type="line"/>
      <point x="338" y="1401" type="line"/>
    </contour>
  </outline>
</glyph>
<glyph name="bracketleft" format="1">
  <advance width="663.552"/>
  <unicode hex="005B"/>
  <outline>
    <contour>
      <point x="387" y="1489" type="line"/>
      <point x="848" y="1475" type="line"/>
      <point x="831" y="1409" type="line"/>
      <point x="455" y="1423" type="line"/>
      <point x="74" y="-113" type="line"/>
      <point x="455" y="-98" type="line"/>
      <point x="438" y="-164" type="line"/>
      <point x="-27" y="-178" type="line"/>
    </contour>
  </outline>
</glyph>
<glyph name="backslash" format="1">
  <advance width="737.28"/>
  <unicode hex="005C"/>
  <outline>
    <contour>
      <point x="360" y="1505" type="line"/>
      <point x="582" y="-195" type="line"/>
      <point x="502" y="-195" type="line"/>
      <point x="281" y="1505" type="line"/>
    </contour>
  </outline>
</glyph>
<glyph name="asciicircum" format="1">
  <advance width="1126.4"/>
  <unicode hex="005E"/>
  <outline>
    <contour>
      <point x="844" y="1485" type="line"/>
      <point x="1081" y="834" type="line"/>
      <point x="1022" y="834" type="line"/>
      <point x="778" y="1395" type="line"/>
      <point x="256" y="834" type="line"/>
      <point x="188" y="834" type="line"/>
      <point x="750" y="1485" type="line"/>
    </contour>
  </outline>
</glyph>
<glyph name="g" format="1">
  <advance width="1019.904"/>
  <unicode hex="0067"/>
  <outline>
    <contour>
      <point x="918" y="1067" type="line"/>
      <point x="989" y="1022" type="line"/>
      <point x="760" y="96" type="line" smooth="yes"/>
      <point x="698.805970149" y="-153.253731343"/>
      <point x="465.164179104" y="-389.0"/>
      <point x="248" y="-389" type="qcurve" smooth="yes"/>
      <point x="165.164179104" y="-389.0"/>
      <point x="25.5223880597" y="-359.641791045"/>
      <point x="-20" y="-338" type="qcurve"/>
      <point x="2" y="-248" type="line"/>
      <point x="43" y="-248" type="line"/>
      <point x="64.6417910448" y="-277.104477612"/>
      <point x="170.268656716" y="-330.0"/>
      <point x="274" y="-330" type="qcurve" smooth="yes"/>
      <point x="434.447761194" y="-330.0"/>
      <point x="618.23880597" y="-134.552238806"/>
      <point x="666" y="55" type="qcurve" smooth="yes"/>
      <point x="725" y="291" type="line"/>
      <point x="713" y="291" type="line"/>
      <point x="583.149253731" y="114.880597015"/>
      <point x="400.820895522" y="-20.0"/>
      <point x="315" y="-20" type="qcurve" smooth="yes"/>
      <point x="186.641791045" y="-20.0"/>
      <point x="74.0" y="180.194029851"/>
      <point x="74" y="319" type="qcurve" smooth="yes"/>
      <point x="74" y="324" type="line" smooth="yes"/>
      <point x="74.0" y="641.910447761"/>
      <point x="390.104477612" y="1069.0"/>
      <point x="561" y="1069" type="qcurve" smooth="yes"/>
      <point x="664.731343284" y="1069.0"/>
      <point x="783.791044776" y="937.835820896"/>
      <point x="842" y="805" type="qcurve"/>
      <point x="854" y="805" type="line"/>
    </contour>
    <contour>
      <point x="342" y="45" type="qcurve" smooth="yes"/>
      <point x="482.298507463" y="45.0"/>
      <point x="813.0" y="508.164179104"/>
      <point x="813" y="641" type="qcurve" smooth="yes"/>
      <point x="813.0" y="772.343283582"/>
      <point x="666.731343284" y="1004.0"/>
      <point x="563" y="1004" type="qcurve" smooth="yes"/>
      <point x="418.223880597" y="1004.0"/>
      <point x="158.0" y="599.641791045"/>
      <point x="158" y="328" type="qcurve" smooth="yes"/>
      <point x="158.0" y="213.074626866"/>
      <point x="233.791044776" y="45.0"/>
    </contour>
  </outline>
</glyph>
<glyph name="h" format="1">
  <advance width="970.752"/>
  <unicode hex="0068"/>
  <outline>
    <contour>
      <point x="717" y="1059" type="qcurve" smooth="yes"/>
      <point x="808.791044776" y="1059.0"/>
      <point x="899.0" y="962.104477612"/>
      <point x="899" y="883" type="qcurve" smooth="yes"/>
      <point x="899.0" y="855.388059701"/>
      <point x="887.955223881" y="780.313432836"/>
      <point x="879" y="743" type="qcurve" smooth="yes"/>
      <point x="694" y="0" type="line"/>
      <point x="612" y="0" type="line"/>
      <point x="795" y="735" type="line" smooth="yes"/>
      <point x="802.462686567" y="767.089552239"/>
      <point x="813.0" y="835.880597015"/>
      <point x="813" y="862" type="qcurve" smooth="yes"/>
      <point x="813.0" y="921.701492537"/>
      <point x="754.179104478" y="993.0"/>
      <point x="690" y="993" type="qcurve" smooth="yes"/>
      <point x="610.895522388" y="993.0"/>
      <point x="399.313432836" y="820.552238806"/>
      <point x="262" y="631" type="qcurve"/>
      <point x="106" y="0" type="line"/>
      <point x="25" y="0" type="line"/>
      <point x="401" y="1516" type="line"/>
      <point x="494" y="1561" type="line"/>
      <point x="295" y="760" type="line"/>
      <point x="307" y="760" type="line"/>
      <point x="417.447761194" y="898.805970149"/>
      <point x="605.059701493" y="1059.0"/>
    </contour>
  </outline>
</glyph>
<glyph name="i" format="1">
  <advance width="434.176"/>
  <unicode hex="0069"/>
  <outline>
    <contour>
      <point x="307" y="1049" type="line"/>
      <point x="389" y="1049" type="line"/>
      <point x="127" y="0" type="line"/>
      <point x="45" y="0" type="line"/>
    </contour>
    <contour>
      <point x="397" y="1475" type="line"/>
      <point x="508" y="1475" type="line"/>
      <point x="469" y="1321" type="line"/>
      <point x="358" y="1321" type="line"/>
    </contour>
  </outline>
</glyph>
<glyph name="k" format="1">
  <advance width="876.544"/>
  <unicode hex="006B"/>
  <outline>
    <contour>
      <point x="864" y="1049" type="line"/>
      <point x="971" y="1049" type="line"/>
      <point x="375" y="528" type="line"/>
      <point x="723" y="0" type="line"/>
      <point x="625" y="0" type="line"/>
      <point x="285" y="528" type="line"/>
      <point x="285" y="539" type="line"/>
    </contour>
    <contour>
      <point x="401" y="1516" type="line"/>
      <point x="494" y="1561" type="line"/>
      <point x="106" y="0" type="line"/>
      <point x="25" y="0" type="line"/>
    </contour>
  </outline>
</glyph>
<glyph name="m" format="1">
  <advance width="1550.336"/>
  <unicode hex="006D"/>
  <outline>
    <contour>
      <point x="1298" y="1059" type="qcurve" smooth="yes"/>
      <point x="1389.79104478" y="1059.0"/>
      <point x="1479.0" y="962.104477612"/>
      <point x="1479" y="883" type="qcurve" smooth="yes"/>
      <point x="1479.0" y="855.388059701"/>
      <point x="1466.95522388" y="780.313432836"/>
      <point x="1458" y="743" type="qcurve" smooth="yes"/>
      <point x="1274" y="0" type="line"/>
      <point x="1192" y="0" type="line"/>
      <point x="1374" y="735" type="line" smooth="yes"/>
      <point x="1381.46268657" y="767.089552239"/>
      <point x="1393.0" y="835.880597015"/>
      <point x="1393" y="862" type="qcurve" smooth="yes"/>
      <point x="1393.0" y="921.701492537"/>
      <point x="1336.17910448" y="993.0"/>
      <point x="1272" y="993" type="qcurve" smooth="yes"/>
      <point x="1192.14925373" y="993.0"/>
      <point x="983.313432836" y="822.044776119"/>
      <point x="846" y="631" type="qcurve"/>
      <point x="690" y="0" type="line"/>
      <point x="608" y="0" type="line"/>
      <point x="791" y="735" type="line" smooth="yes"/>
      <point x="798.462686567" y="767.089552239"/>
      <point x="809.0" y="835.880597015"/>
      <point x="809" y="862" type="qcurve" smooth="yes"/>
      <point x="809.0" y="921.701492537"/>
      <point x="752.179104478" y="993.0"/>
      <point x="688" y="993" type="qcurve" smooth="yes"/>
      <point x="608.895522388" y="993.0"/>
      <point x="399.313432836" y="820.552238806"/>
      <point x="262" y="631" type="qcurve"/>
      <point x="106" y="0" type="line"/>
      <point x="25" y="0" type="line"/>
      <point x="279" y="1022" type="line"/>
      <point x="371" y="1067" type="line"/>
      <point x="295" y="760" type="line"/>
      <point x="307" y="760" type="line"/>
      <point x="417.447761194" y="898.805970149"/>
      <point x="603.059701493" y="1059.0"/>
      <point x="715" y="1059" type="qcurve" smooth="yes"/>
      <point x="806.791044776" y="1059.0"/>
      <point x="895.0" y="962.104477612"/>
      <point x="895" y="883" type="qcurve" smooth="yes"/>
      <point x="895.0" y="858.373134328"/>
      <point x="886.462686567" y="793.582089552"/>
      <point x="879" y="760" type="qcurve"/>
      <point x="891" y="760" type="line"/>
      <point x="1000.70149254" y="898.805970149"/>
      <point x="1186.80597015" y="1059.0"/>
    </contour>
  </outline>
</glyph>
<glyph name="r" format="1">
  <advance width="722.944"/>
  <unicode hex="0072"/>
  <outline>
    <contour>
      <point x="283" y="662" type="line"/>
      <point x="423.298507463" y="847.820895522"/>
      <point x="690.641791045" y="1065.50746269"/>
      <point x="819" y="1067" type="qcurve"/>
      <point x="797" y="977" type="line"/>
      <point x="660.432835821" y="965.059701493"/>
      <point x="379.313432836" y="730.582089552"/>
      <point x="242" y="547" type="qcurve"/>
      <point x="106" y="0" type="line"/>
      <point x="25" y="0" type="line"/>
      <point x="279" y="1022" type="line"/>
      <point x="371" y="1067" type="line"/>
      <point x="270" y="662" type="line"/>
    </contour>
  </outline>
</glyph>
<glyph name="s" format="1">
  <advance width="796.672"/>
  <unicode hex="0073"/>
  <outline>
    <contour>
      <point x="481" y="1067" type="qcurve" smooth="yes"/>
      <point x="569.805970149" y="1067.0"/>
      <point x="722.805970149" y="998.71641791"/>
      <point x="784" y="942" type="qcurve"/>
      <point x="735" y="885" type="line"/>
      <point x="680.52238806" y="943.208955224"/>
      <point x="546.641791045" y="1006.0"/>
      <point x="475" y="1006" type="qcurve" smooth="yes"/>
      <point x="375.746268657" y="1006.0"/>
      <point x="250.0" y="889.805970149"/>
      <point x="250" y="801" type="qcurve" smooth="yes"/>
      <point x="250.0" y="729.358208955"/>
      <point x="330.268656716" y="630.985074627"/>
      <point x="434" y="578" type="qcurve" smooth="yes"/>
      <point x="548.925373134" y="519.791044776"/>
      <point x="664.0" y="386.76119403"/>
      <point x="664" y="289" type="qcurve" smooth="yes"/>
      <point x="664.0" y="156.164179104"/>
      <point x="469.791044776" y="-18.0"/>
      <point x="328" y="-18" type="qcurve" smooth="yes"/>
      <point x="219.044776119" y="-18.0"/>
      <point x="50.1492537313" y="58.3432835821"/>
      <point x="-20" y="127" type="qcurve"/>
      <point x="29" y="184" type="line"/>
      <point x="90.1940298507" y="118.328358209"/>
      <point x="236.746268657" y="43.0"/>
      <point x="336" y="43" type="qcurve" smooth="yes"/>
      <point x="445.701492537" y="43.0"/>
      <point x="584.0" y="177.507462687"/>
      <point x="584" y="279" type="qcurve" smooth="yes"/>
      <point x="584.0" y="358.104477612"/>
      <point x="493.208955224" y="455.791044776"/>
      <point x="385" y="514" type="qcurve" smooth="yes"/>
      <point x="273.805970149" y="573.701492537"/>
      <point x="170.0" y="702.194029851"/>
      <point x="170" y="791" type="qcurve" smooth="yes"/>
      <point x="170.0" y="909.656716418"/>
      <point x="342.194029851" y="1067.0"/>
    </contour>
  </outline>
</glyph>
<glyph name="t" format="1">
  <advance width="684.032"/>
  <unicode hex="0074"/>
  <outline>
    <contour>
      <point x="438" y="1038" type="line"/>
      <point x="705" y="1038" type="line"/>
      <point x="688" y="973" type="line"/>
      <point x="422" y="973" type="line"/>
      <point x="238" y="236" type="line" smooth="yes"/>
      <point x="231.28358209" y="211.373134328"/>
      <point x="223.0" y="165.149253731"/>
      <point x="223" y="145" type="qcurve" smooth="yes"/>
      <point x="223.0" y="97.9850746269"/>
      <point x="284.268656716" y="45.0"/>
      <point x="338" y="45" type="qcurve" smooth="yes"/>
      <point x="379.044776119" y="45.0"/>
      <point x="473.805970149" y="77.4179104478"/>
      <point x="535" y="111" type="qcurve"/>
      <point x="512" y="29" type="line"/>
      <point x="458.268656716" y="4.37313432836"/>
      <point x="369.23880597" y="-20.0"/>
      <point x="317" y="-20" type="qcurve" smooth="yes"/>
      <point x="236.402985075" y="-20.0"/>
      <point x="141.0" y="63.3582089552"/>
      <point x="141" y="135" type="qcurve" smooth="yes"/>
      <point x="141.0" y="155.149253731"/>
      <point x="149.28358209" y="209.119402985"/>
      <point x="156" y="233" type="qcurve" smooth="yes"/>
      <point x="340" y="973" type="line"/>
      <point x="143" y="973" type="line"/>
      <point x="160" y="1038" type="line"/>
      <point x="356" y="1038" type="line"/>
      <point x="459" y="1454" type="line"/>
      <point x="551" y="1499" type="line"/>
    </contour>
  </outline>
</glyph>
<glyph name="u" format="1">
  <advance width="970.752"/>
  <unicode hex="0075"/>
  <outline>
    <contour>
      <point x="864" y="1049" type="line"/>
      <point x="946" y="1049" type="line"/>
      <point x="692" y="27" type="line"/>
      <point x="600" y="-18" type="line"/>
      <point x="676" y="289" type="line"/>
      <point x="664" y="289" type="line"/>
      <point x="553.552238806" y="149.447761194"/>
      <point x="365.194029851" y="-10.0"/>
      <point x="254" y="-10" type="qcurve" smooth="yes"/>
      <point x="162.208955224" y="-10.0"/>
      <point x="72.0" y="86.1492537313"/>
      <point x="72" y="166" type="qcurve" smooth="yes"/>
      <point x="72.0" y="193.611940299"/>
      <point x="83.0447761194" y="268.432835821"/>
      <point x="92" y="305" type="qcurve" smooth="yes"/>
      <point x="276" y="1049" type="line"/>
      <point x="358" y="1049" type="line"/>
      <point x="176" y="313" type="line" smooth="yes"/>
      <point x="168.537313433" y="280.910447761"/>
      <point x="158.0" y="212.119402985"/>
      <point x="158" y="186" type="qcurve" smooth="yes"/>
      <point x="158.0" y="126.298507463"/>
      <point x="216.820895522" y="55.0"/>
      <point x="281" y="55" type="qcurve" smooth="yes"/>
      <point x="360.104477612" y="55.0"/>
      <point x="570.940298507" y="228.447761194"/>
      <point x="709" y="418" type="qcurve"/>
    </contour>
  </outline>
</glyph>
<glyph name="w" format="1">
  <advance width="1490.944"/>
  <unicode hex="0077"/>
  <outline>
    <contour>
      <point x="1470" y="1049" type="line"/>
      <point x="1556" y="1049" type="line"/>
      <point x="961" y="-8" type="line"/>
      <point x="879" y="-8" type="line"/>
      <point x="850" y="940" type="line"/>
      <point x="346" y="-8" type="line"/>
      <point x="264" y="-8" type="line"/>
      <point x="197" y="1049" type="line"/>
      <point x="279" y="1049" type="line"/>
      <point x="326" y="80" type="line"/>
      <point x="834" y="1049" type="line"/>
      <point x="915" y="1049" type="line"/>
      <point x="940" y="80" type="line"/>
    </contour>
  </outline>
</glyph>
<glyph name="x" format="1">
  <advance width="909.312"/>
  <unicode hex="0078"/>
  <outline>
    <contour>
      <point x="862" y="1049" type="line"/>
      <point x="956" y="1049" type="line"/>
      <point x="496" y="530" type="line"/>
      <point x="709" y="0" type="line"/>
      <point x="625" y="0" type="line"/>
      <point x="442" y="479" type="line"/>
      <point x="33" y="0" type="line"/>
      <point x="-61" y="0" type="line"/>
      <point x="416" y="537" type="line"/>
      <point x="211" y="1049" type="line"/>
      <point x="295" y="1049" type="line"/>
      <point x="469" y="588" type="line"/>
    </contour>
  </outline>
</glyph>
<glyph name="y" format="1">
  <advance width="892.928"/>
  <unicode hex="0079"/>
  <outline>
    <contour>
      <point x="877" y="1049" type="line"/>
      <point x="963" y="1049" type="line"/>
      <point x="248" y="-193" type="line" smooth="yes"/>
      <point x="179.343283582" y="-311.656716418"/>
      <point x="56.6567164179" y="-395.0"/>
      <point x="-12" y="-395" type="qcurve" smooth="yes"/>
      <point x="-68.7164179104" y="-395.0"/>
      <point x="-148.417910448" y="-371.164179104"/>
      <point x="-182" y="-354" type="qcurve"/>
      <point x="-162" y="-270" type="line"/>
      <point x="-123" y="-270" type="line"/>
      <point x="-105.835820896" y="-302.089552239"/>
      <point x="-54.2686567164" y="-336.0"/>
      <point x="-8" y="-336" type="qcurve" smooth="yes"/>
      <point x="33.0447761194" y="-336.0"/>
      <point x="114.23880597" y="-278.104477612"/>
      <point x="162" y="-199" type="qcurve" smooth="yes"/>
      <point x="274" y="-10" type="line"/>
      <point x="193" y="1049" type="line"/>
      <point x="272" y="1049" type="line"/>
      <point x="334" y="74" type="line"/>
    </contour>
  </outline>
</glyph>
<glyph name="z" format="1">
  <advance width="821.248"/>
  <unicode hex="007A"/>
  <outline>
    <contour>
      <point x="223" y="1038" type="line"/>
      <point x="879" y="1038" type="line"/>
      <point x="866" y="983" type="line"/>
      <point x="47" y="66" type="line"/>
      <point x="637" y="66" type="line"/>
      <point x="621" y="0" type="line"/>
      <point x="-66" y="0" type="line"/>
      <point x="-51" y="55" type="line"/>
      <point x="766" y="973" type="line"/>
      <point x="207" y="973" type="line"/>
    </contour>
  </outline>
</glyph>
<glyph name="braceleft" format="1">
  <advance width="745.472"/>
  <unicode hex="007B"/>
  <outline>
    <contour>
      <point x="772" y="1475" type="qcurve" smooth="yes"/>
      <point x="909" y="1475" type="line"/>
      <point x="893" y="1409" type="line"/>
      <point x="762" y="1409" type="line" smooth="yes"/>
      <point x="671.701492537" y="1409.0"/>
      <point x="564.910447761" y="1329.3880597"/>
      <point x="547" y="1257" type="qcurve" smooth="yes"/>
      <point x="525.358208955" y="1174.91044776"/>
      <point x="523.402985075" y="996.343283582"/>
      <point x="504" y="915" type="qcurve" smooth="yes"/>
      <point x="474.895522388" y="797.835820896"/>
      <point x="336.940298507" y="695.582089552"/>
      <point x="225" y="662" type="qcurve"/>
      <point x="221" y="645" type="line"/>
      <point x="302.343283582" y="618.880597015"/>
      <point x="381.0" y="540.134328358"/>
      <point x="381" y="467" type="qcurve" smooth="yes"/>
      <point x="381.0" y="361.776119403"/>
      <point x="242.0" y="107.76119403"/>
      <point x="242" y="10" type="qcurve" smooth="yes"/>
      <point x="242.0" y="-40.0"/>
      <point x="314.850746269" y="-98.0"/>
      <point x="385" y="-98" type="qcurve" smooth="yes"/>
      <point x="516" y="-98" type="line"/>
      <point x="500" y="-164" type="line"/>
      <point x="373" y="-164" type="line" smooth="yes"/>
      <point x="273.746268657" y="-164.0"/>
      <point x="162.0" y="-83.3134328358"/>
      <point x="162" y="4" type="qcurve" smooth="yes"/>
      <point x="162.0" y="124.895522388"/>
      <point x="303.0" y="373.746268657"/>
      <point x="303" y="473" type="qcurve" smooth="yes"/>
      <point x="303.0" y="540.164179104"/>
      <point x="190.686567164" y="621.0"/>
      <point x="78" y="621" type="qcurve"/>
      <point x="94" y="690" type="line"/>
      <point x="208.925373134" y="690.0"/>
      <point x="386.388059701" y="786.791044776"/>
      <point x="414" y="895" type="qcurve" smooth="yes"/>
      <point x="430.417910448" y="965.149253731"/>
      <point x="440.850746269" y="1172.40298507"/>
      <point x="461" y="1253" type="qcurve" smooth="yes"/>
      <point x="488.611940299" y="1363.44776119"/>
      <point x="637.671641791" y="1475.0"/>
    </contour>
  </outline>
</glyph>
<glyph name="bar" format="1">
  <advance width="466.944"/>
  <unicode hex="007C"/>
  <outline>
    <contour>
      <point x="451" y="1561" type="line"/>
      <point x="528" y="1561" type="line"/>
      <point x="45" y="-385" type="line"/>
      <point x="-33" y="-385" type="line"/>
    </contour>
  </outline>
</glyph>
<glyph name="exclamdown" format="1">
  <advance width="471.04"/>
  <unicode hex="00A1"/>
  <outline>
    <contour>
      <point x="453" y="1489" type="qcurve" smooth="yes"/>
      <point x="486.582089552" y="1489.0"/>
      <point x="530.0" y="1444.58208955"/>
      <point x="530" y="1411" type="qcurve" smooth="yes"/>
      <point x="530.0" y="1377.41791045"/>
      <point x="486.582089552" y="1333.0"/>
      <point x="453" y="1333" type="qcurve" smooth="yes"/>
      <point x="419.417910448" y="1333.0"/>
      <point x="375.0" y="1377.41791045"/>
      <point x="375" y="1411" type="qcurve" smooth="yes"/>
      <point x="375.0" y="1444.58208955"/>
      <point x="419.417910448" y="1489.0"/>
    </contour>
    <contour>
      <point x="352" y="1069" type="line"/>
      <point x="389" y="1069" type="line"/>
      <point x="160" y="0" type="line"/>
      <point x="49" y="0" type="line"/>
    </contour>
  </outline>
</glyph>
<glyph name="cent" format="1">
  <advance width="911.36"/>
  <unicode hex="00A2"/>
  <outline>
    <contour>
      <point x="901" y="1243" type="line"/>
      <point x="967" y="1243" type="line"/>
      <point x="256" y="86" type="line"/>
      <point x="285.104477612" y="64.3582089552"/>
      <point x="355.447761194" y="43.0"/>
      <point x="395" y="43" type="qcurve" smooth="yes"/>
      <point x="477.835820896" y="43.0"/>
      <point x="621.850746269" y="144.432835821"/>
      <point x="692" y="231" type="qcurve"/>
      <point x="745" y="193" type="line"/>
      <point x="667.388059701" y="93.0"/>
      <point x="489.23880597" y="-20.0"/>
      <point x="387" y="-20" type="qcurve" smooth="yes"/>
      <point x="341.47761194" y="-20.0"/>
      <point x="256.074626866" y="3.86567164179"/>
      <point x="221" y="27" type="qcurve"/>
      <point x="84" y="-195" type="line"/>
      <point x="18" y="-195" type="line"/>
      <point x="176" y="61" type="line"/>
      <point x="130.47761194" y="107.268656716"/>
      <point x="76.0" y="246.208955224"/>
      <point x="76" y="338" type="qcurve" smooth="yes"/>
      <point x="76" y="342" type="line" smooth="yes"/>
      <point x="76.0" y="397.223880597"/>
      <point x="90.5671641791" y="515.029850746"/>
      <point x="104" y="571" type="qcurve" smooth="yes"/>
      <point x="153.253731343" y="763.537313433"/>
      <point x="405.940298507" y="1069.0"/>
      <point x="594" y="1069" type="qcurve" smooth="yes"/>
      <point x="652.208955224" y="1069.0"/>
      <point x="735.402985075" y="1045.64179104"/>
      <point x="766" y="1024" type="qcurve"/>
    </contour>
    <contour>
      <point x="215" y="125" type="qcurve"/>
      <point x="729" y="965" type="line"/>
      <point x="699.895522388" y="984.402985075"/>
      <point x="631.014925373" y="1006.0"/>
      <point x="584" y="1006" type="qcurve" smooth="yes"/>
      <point x="441.462686567" y="1006.0"/>
      <point x="234.268656716" y="756.895522388"/>
      <point x="188" y="586" type="qcurve" smooth="yes"/>
      <point x="171.582089552" y="524.805970149"/>
      <point x="156.0" y="407.194029851"/>
      <point x="156" y="346" type="qcurve" smooth="yes"/>
      <point x="156" y="342" type="line" smooth="yes"/>
      <point x="156.0" y="270.358208955"/>
      <point x="187.388059701" y="161.567164179"/>
    </contour>
  </outline>
</glyph>
<glyph name="yen" format="1">
  <advance width="1228.8"/>
  <unicode hex="00A5"/>
  <outline>
    <contour>
      <point x="1311" y="1475" type="line"/>
      <point x="1413" y="1475" type="line"/>
      <point x="834" y="768" type="line"/>
      <point x="1135" y="768" type="line"/>
      <point x="1116" y="696" type="line"/>
      <point x="774" y="696" type="line"/>
      <point x="668" y="565" type="line"/>
      <point x="627" y="397" type="line"/>
      <point x="1042" y="397" type="line"/>
      <point x="1024" y="326" type="line"/>
      <point x="608" y="326" type="line"/>
      <point x="528" y="0" type="line"/>
      <point x="442" y="0" type="line"/>
      <point x="522" y="326" type="line"/>
      <point x="106" y="326" type="line"/>
      <point x="125" y="397" type="line"/>
      <point x="541" y="397" type="line"/>
      <point x="582" y="565" type="line"/>
      <point x="541" y="696" type="line"/>
      <point x="199" y="696" type="line"/>
      <point x="217" y="768" type="line"/>
      <point x="516" y="768" type="line"/>
      <point x="291" y="1475" type="line"/>
      <point x="385" y="1475" type="line"/>
      <point x="639" y="635" type="line"/>
    </contour>
  </outline>
</glyph>
<glyph name="dieresis" format="1">
  <advance width="1024.0"/>
  <unicode hex="00A8"/>
  <outline>
    <contour>
      <point x="483" y="1366" type="line"/>
      <point x="604" y="1366" type="line"/>
      <point x="567" y="1212" type="line"/>
      <point x="446" y="1212" type="line"/>
    </contour>
    <contour>
      <point x="834" y="1366" type="line"/>
      <point x="954" y="1366" type="line"/>
      <point x="918" y="1212" type="line"/>
      <point x="797" y="1212" type="line"/>
    </contour>
  </outline>
</glyph>
<glyph name="degree" format="1">
  <advance width="819.2"/>
  <unicode hex="00B0"/>
  <outline>
    <contour>
      <point x="522" y="1483" type="qcurve" smooth="yes"/>
      <point x="648.865671642" y="1483.0"/>
      <point x="819.0" y="1316.86567164"/>
      <point x="819" y="1190" type="qcurve" smooth="yes"/>
      <point x="819.0" y="1063.13432836"/>
      <point x="648.865671642" y="897.0"/>
      <point x="522" y="897" type="qcurve" smooth="yes"/>
      <point x="395.134328358" y="897.0"/>
      <point x="225.0" y="1063.13432836"/>
      <point x="225" y="1190" type="qcurve" smooth="yes"/>
      <point x="225.0" y="1316.86567164"/>
      <point x="395.134328358" y="1483.0"/>
    </contour>
    <contour>
      <point x="522" y="963" type="qcurve" smooth="yes"/>
      <point x="616.776119403" y="963.0"/>
      <point x="743.0" y="1090.74626866"/>
      <point x="743" y="1190" type="qcurve" smooth="yes"/>
      <point x="743.0" y="1289.25373134"/>
      <point x="616.776119403" y="1417.0"/>
      <point x="522" y="1417" type="qcurve" smooth="yes"/>
      <point x="427.223880597" y="1417.0"/>
      <point x="301.0" y="1289.25373134"/>
      <point x="301" y="1190" type="qcurve" smooth="yes"/>
      <point x="301.0" y="1090.74626866"/>
      <point x="427.223880597" y="963.0"/>
    </contour>
  </outline>
</glyph>
<glyph name="acute" format="1">
  <advance width="1024.0"/>
  <unicode hex="00B4"/>
  <outline>
    <contour>
      <point x="793" y="1522" type="line"/>
      <point x="934" y="1522" type="line"/>
      <point x="596" y="1212" type="line"/>
      <point x="532" y="1212" type="line"/>
    </contour>
  </outline>
</glyph>
<glyph name="cedilla" format="1">
  <advance width="1024.0"/>
  <unicode hex="00B8"/>
  <outline>
    <contour>
      <point x="440" y="-115" type="qcurve" smooth="yes"/>
      <point x="487.76119403" y="-115.0"/>
      <point x="557.0" y="-165.985074627"/>
      <point x="557" y="-213" type="qcurve" smooth="yes"/>
      <point x="557.0" y="-297.328358209"/>
      <point x="388.776119403" y="-389.0"/>
      <point x="244" y="-389" type="qcurve" smooth="yes"/>
      <point x="213.402985075" y="-389.0"/>
      <point x="144.582089552" y="-385.985074627"/>
      <point x="111" y="-383" type="qcurve"/>
      <point x="123" y="-338" type="line"/>
      <point x="146.134328358" y="-340.985074627"/>
      <point x="190.850746269" y="-344.0"/>
      <point x="211" y="-344" type="qcurve" smooth="yes"/>
      <point x="336.373134328" y="-344.0"/>
      <point x="463.0" y="-285.014925373"/>
      <point x="463" y="-238" type="qcurve" smooth="yes"/>
      <point x="463.0" y="-207.402985075"/>
      <point x="420.074626866" y="-176.0"/>
      <point x="385" y="-176" type="qcurve" smooth="yes"/>
      <point x="355.895522388" y="-176.0"/>
      <point x="300.089552239" y="-188.313432836"/>
      <point x="268" y="-201" type="qcurve"/>
      <point x="236" y="-174" type="line"/>
      <point x="381" y="0" type="line"/>
      <point x="449" y="0" type="line"/>
      <point x="346" y="-129" type="line"/>
      <point x="369.134328358" y="-121.537313433"/>
      <point x="416.119402985" y="-115.0"/>
    </contour>
  </outline>
</glyph>
<glyph name="ordmasculine" format="1">
  <advance width="757.76"/>
  <unicode hex="00BA"/>
  <outline>
    <contour>
      <point x="573" y="1489" type="qcurve" smooth="yes"/>
      <point x="666.28358209" y="1489.0"/>
      <point x="797.0" y="1364.91044776"/>
      <point x="797" y="1247" type="qcurve" smooth="yes"/>
      <point x="797.0" y="1073.11940299"/>
      <point x="601.432835821" y="764.0"/>
      <point x="438" y="764" type="qcurve" smooth="yes"/>
      <point x="344.71641791" y="764.0"/>
      <point x="215.0" y="888.089552239"/>
      <point x="215" y="1006" type="qcurve" smooth="yes"/>
      <point x="215.0" y="1179.88059701"/>
      <point x="409.567164179" y="1489.0"/>
    </contour>
    <contour>
      <point x="442" y="823" type="qcurve" smooth="yes"/>
      <point x="573.343283582" y="823.0"/>
      <point x="723.0" y="1093.98507463"/>
      <point x="723" y="1241" type="qcurve" smooth="yes"/>
      <point x="723.0" y="1337.26865672"/>
      <point x="636.164179104" y="1430.0"/>
      <point x="569" y="1430" type="qcurve" smooth="yes"/>
      <point x="437.656716418" y="1430.0"/>
      <point x="289.0" y="1158.26865672"/>
      <point x="289" y="1012" type="qcurve" smooth="yes"/>
      <point x="289.0" y="915.731343284"/>
      <point x="374.835820896" y="823.0"/>
    </contour>
    <contour>
      <point x="139" y="598" type="line"/>
      <point x="655" y="598" type="line"/>
      <point x="639" y="535" type="line"/>
      <point x="123" y="535" type="line"/>
    </contour>
  </outline>
</glyph>
<glyph name="guillemotright" format="1">
  <advance width="901.12"/>
  <unicode hex="00BB"/>
  <outline>
    <contour>
      <point x="233" y="885" type="line"/>
      <point x="461" y="524" type="line"/>
      <point x="53" y="164" type="line"/>
      <point x="-20" y="164" type="line"/>
      <point x="354" y="535" type="line"/>
      <point x="168" y="885" type="line"/>
    </contour>
    <contour>
      <point x="608" y="885" type="line"/>
      <point x="836" y="524" type="line"/>
      <point x="428" y="164" type="line"/>
      <point x="354" y="164" type="line"/>
      <point x="729" y="535" type="line"/>
      <point x="543" y="885" type="line"/>
    </contour>
  </outline>
</glyph>
<glyph name="Ccedilla" format="1">
  <advance width="1159.168"/>
  <unicode hex="00C7"/>
  <outline>
    <contour>
      <point x="823" y="1499" type="qcurve" smooth="yes"/>
      <point x="1005.08955224" y="1499.0"/>
      <point x="1187.49253731" y="1264.97014925"/>
      <point x="1186" y="1059" type="qcurve"/>
      <point x="1104" y="1038" type="line"/>
      <point x="1102.50746269" y="1221.58208955"/>
      <point x="965.507462687" y="1425.0"/>
      <point x="817" y="1425" type="qcurve" smooth="yes"/>
      <point x="621.47761194" y="1425.0"/>
      <point x="332.686567164" y="1041.56716418"/>
      <point x="270" y="805" type="qcurve" smooth="yes"/>
      <point x="247.611940299" y="720.671641791"/>
      <point x="223.0" y="556.850746269"/>
      <point x="223" y="477" type="qcurve" smooth="yes"/>
      <point x="223" y="473" type="line" smooth="yes"/>
      <point x="223.0" y="299.119402985"/>
      <point x="368.059701493" y="49.0"/>
      <point x="530" y="49" type="qcurve" smooth="yes"/>
      <point x="669.552238806" y="49.0"/>
      <point x="876.895522388" y="241.820895522"/>
      <point x="956" y="406" type="qcurve"/>
      <point x="1032" y="373" type="line"/>
      <point x="941.701492537" y="187.925373134"/>
      <point x="694.462686567" y="-19.776119403"/>
      <point x="537" y="-25" type="qcurve"/>
      <point x="453" y="-129" type="line"/>
      <point x="475.388059701" y="-121.537313433"/>
      <point x="522.373134328" y="-115.0"/>
      <point x="547" y="-115" type="qcurve" smooth="yes"/>
      <point x="594.014925373" y="-115.0"/>
      <point x="664.0" y="-165.985074627"/>
      <point x="664" y="-213" type="qcurve" smooth="yes"/>
      <point x="664.0" y="-297.328358209"/>
      <point x="495.52238806" y="-389.0"/>
      <point x="350" y="-389" type="qcurve" smooth="yes"/>
      <point x="319.402985075" y="-389.0"/>
      <point x="250.582089552" y="-385.985074627"/>
      <point x="217" y="-383" type="qcurve"/>
      <point x="229" y="-338" type="line"/>
      <point x="252.134328358" y="-340.985074627"/>
      <point x="297.597014925" y="-344.0"/>
      <point x="317" y="-344" type="qcurve" smooth="yes"/>
      <point x="442.373134328" y="-344.0"/>
      <point x="569.0" y="-285.014925373"/>
      <point x="569" y="-238" type="qcurve" smooth="yes"/>
      <point x="569.0" y="-207.402985075"/>
      <point x="527.074626866" y="-176.0"/>
      <point x="492" y="-176" type="qcurve" smooth="yes"/>
      <point x="462.895522388" y="-176.0"/>
      <point x="407.089552239" y="-188.313432836"/>
      <point x="375" y="-201" type="qcurve"/>
      <point x="342" y="-174" type="line"/>
      <point x="469" y="-20" type="line"/>
      <point x="305.567164179" y="-2.08955223881"/>
      <point x="133.0" y="263.537313433"/>
      <point x="133" y="471" type="qcurve" smooth="yes"/>
      <point x="133" y="475" type="line" smooth="yes"/>
      <point x="133.0" y="545.149253731"/>
      <point x="149.343283582" y="675.671641791"/>
      <point x="168" y="760" type="qcurve" smooth="yes"/>
      <point x="230.686567164" y="1041.34328358"/>
      <point x="577.47761194" y="1499.0"/>
    </contour>
  </outline>
</glyph>
<glyph name="Eth" format="1">
  <advance width="1325.056"/>
  <unicode hex="00D0"/>
  <outline>
    <contour>
      <point x="1286" y="942" type="qcurve" smooth="yes"/>
      <point x="1286" y="938" type="line" smooth="yes"/>
      <point x="1286.0" y="869.343283582"/>
      <point x="1273.43283582" y="753.194029851"/>
      <point x="1260" y="692" type="qcurve" smooth="yes"/>
      <point x="1186.11940299" y="372.597014925"/>
      <point x="722.835820896" y="0.0"/>
      <point x="440" y="0" type="qcurve" smooth="yes"/>
      <point x="129" y="0" type="line"/>
      <point x="313" y="737" type="line"/>
      <point x="115" y="737" type="line"/>
      <point x="133" y="811" type="line"/>
      <point x="332" y="811" type="line"/>
      <point x="496" y="1475" type="line"/>
      <point x="743" y="1475" type="line" smooth="yes"/>
      <point x="975.835820896" y="1475.0"/>
      <point x="1286.0" y="1214.3880597"/>
    </contour>
    <contour>
      <point x="1163" y="668" type="qcurve" smooth="yes"/>
      <point x="1178.67164179" y="725.462686567"/>
      <point x="1196.0" y="866.835820896"/>
      <point x="1196" y="934" type="qcurve" smooth="yes"/>
      <point x="1196" y="938" type="line" smooth="yes"/>
      <point x="1196.0" y="1168.59701493"/>
      <point x="939.23880597" y="1401.0"/>
      <point x="737" y="1401" type="qcurve" smooth="yes"/>
      <point x="567" y="1401" type="line"/>
      <point x="420" y="811" type="line"/>
      <point x="733" y="811" type="line"/>
      <point x="715" y="737" type="line"/>
      <point x="401" y="737" type="line"/>
      <point x="238" y="74" type="line"/>
      <point x="446" y="74" type="line" smooth="yes"/>
      <point x="690.776119403" y="74.0"/>
      <point x="1091.35820896" y="394.119402985"/>
    </contour>
  </outline>
</glyph>
<glyph name="multiply" format="1">
  <advance width="1228.8"/>
  <unicode hex="00D7"/>
  <outline>
    <contour>
      <point x="717" y="727" type="line"/>
      <point x="1120" y="328" type="line"/>
      <point x="1065" y="272" type="line"/>
      <point x="666" y="676" type="line"/>
      <point x="266" y="272" type="line"/>
      <point x="211" y="328" type="line"/>
      <point x="614" y="727" type="line"/>
      <point x="211" y="1126" type="line"/>
      <point x="266" y="1182" type="line"/>
      <point x="666" y="778" type="line"/>
      <point x="1065" y="1182" type="line"/>
      <point x="1120" y="1126" type="line"/>
    </contour>
  </outline>
</glyph>
<glyph name="Oslash" format="1">
  <advance width="1236.992"/>
  <unicode hex="00D8"/>
  <outline>
    <contour>
      <point x="1333" y="1673" type="line"/>
      <point x="1411" y="1673" type="line"/>
      <point x="1141" y="1313" type="line"/>
      <point x="1174.58208955" y="1251.80597015"/>
      <point x="1210.0" y="1095.04477612"/>
      <point x="1210" y="1004" type="qcurve" smooth="yes"/>
      <point x="1210" y="999" type="line" smooth="yes"/>
      <point x="1210.0" y="921.388059701"/>
      <point x="1189.65671642" y="774.835820896"/>
      <point x="1171" y="692" type="qcurve" smooth="yes"/>
      <point x="1110.55223881" y="420.358208955"/>
      <point x="766.805970149" y="-25.0"/>
      <point x="528" y="-25" type="qcurve" smooth="yes"/>
      <point x="434.71641791" y="-25.0"/>
      <point x="288.0" y="44.0597014925"/>
      <point x="238" y="106" type="qcurve"/>
      <point x="12" y="-195" type="line"/>
      <point x="-66" y="-195" type="line"/>
      <point x="201" y="162" type="line"/>
      <point x="168.910447761" y="221.701492537"/>
      <point x="133.0" y="379.208955224"/>
      <point x="133" y="471" type="qcurve" smooth="yes"/>
      <point x="133" y="475" type="line" smooth="yes"/>
      <point x="133.0" y="553.358208955"/>
      <point x="153.343283582" y="699.910447761"/>
      <point x="172" y="782" type="qcurve" smooth="yes"/>
      <point x="233.194029851" y="1054.3880597"/>
      <point x="576.940298507" y="1499.0"/>
      <point x="815" y="1499" type="qcurve" smooth="yes"/>
      <point x="908.28358209" y="1499.0"/>
      <point x="1054.74626866" y="1430.68656716"/>
      <point x="1104" y="1368" type="qcurve"/>
    </contour>
    <contour>
      <point x="1073" y="653" type="qcurve" smooth="yes"/>
      <point x="1096.13432836" y="737.328358209"/>
      <point x="1122.0" y="916.402985075"/>
      <point x="1122" y="997" type="qcurve" smooth="yes"/>
      <point x="1122" y="1001" type="line" smooth="yes"/>
      <point x="1122.0" y="1065.17910448"/>
      <point x="1103.14925373" y="1184.25373134"/>
      <point x="1083" y="1235" type="qcurve"/>
      <point x="291" y="178" type="line"/>
      <point x="329.059701493" y="118.298507463"/>
      <point x="450.671641791" y="47.0"/>
      <point x="535" y="47" type="qcurve" smooth="yes"/>
      <point x="723.805970149" y="47.0"/>
      <point x="1011.80597015" y="422.402985075"/>
    </contour>
    <contour>
      <point x="260" y="240" type="qcurve"/>
      <point x="1051" y="1296" type="line"/>
      <point x="1013.68656716" y="1357.19402985"/>
      <point x="893.328358209" y="1427.0"/>
      <point x="809" y="1427" type="qcurve" smooth="yes"/>
      <point x="619.447761194" y="1427.0"/>
      <point x="331.194029851" y="1051.59701493"/>
      <point x="270" y="821" type="qcurve" smooth="yes"/>
      <point x="247.611940299" y="737.417910448"/>
      <point x="221.0" y="558.343283582"/>
      <point x="221" y="477" type="qcurve" smooth="yes"/>
      <point x="221" y="473" type="line" smooth="yes"/>
      <point x="221.0" y="408.820895522"/>
      <point x="239.850746269" y="290.0"/>
    </contour>
  </outline>
</glyph>
<glyph name="eth" format="1">
  <advance width="989.184"/>
  <unicode hex="00F0"/>
  <outline>
    <contour>
      <point x="819" y="1438" type="qcurve"/>
      <point x="1053" y="1561" type="line"/>
      <point x="1034" y="1483" type="line"/>
      <point x="848" y="1384" type="line"/>
      <point x="893.52238806" y="1287.73134328"/>
      <point x="940.0" y="1080.70149254"/>
      <point x="940" y="971" type="qcurve" smooth="yes"/>
      <point x="940" y="967" type="line" smooth="yes"/>
      <point x="940.0" y="867.746268657"/>
      <point x="907.597014925" y="652.388059701"/>
      <point x="877" y="530" type="qcurve" smooth="yes"/>
      <point x="806.104477612" y="252.388059701"/>
      <point x="531.985074627" y="-20.0"/>
      <point x="379" y="-20" type="qcurve" smooth="yes"/>
      <point x="249.149253731" y="-20.0"/>
      <point x="76.0" y="163.373134328"/>
      <point x="76" y="338" type="qcurve" smooth="yes"/>
      <point x="76" y="342" type="line" smooth="yes"/>
      <point x="76.0" y="395.731343284"/>
      <point x="88.5671641791" y="505.776119403"/>
      <point x="102" y="561" type="qcurve" smooth="yes"/>
      <point x="149.76119403" y="756.52238806"/>
      <point x="404.417910448" y="1069.0"/>
      <point x="588" y="1069" type="qcurve" smooth="yes"/>
      <point x="705.164179104" y="1069.0"/>
      <point x="841.582089552" y="903.373134328"/>
      <point x="858" y="778" type="qcurve"/>
      <point x="870" y="778" type="line"/>
      <point x="890.149253731" y="957.104477612"/>
      <point x="841.701492537" y="1235.07462687"/>
      <point x="782" y="1350" type="qcurve"/>
      <point x="514" y="1208" type="line"/>
      <point x="535" y="1286" type="line"/>
      <point x="752" y="1401" type="line"/>
      <point x="731.850746269" y="1434.58208955"/>
      <point x="685.119402985" y="1499.40298507"/>
      <point x="659" y="1530" type="qcurve"/>
      <point x="741" y="1561" type="line"/>
      <point x="762.641791045" y="1530.40298507"/>
      <point x="802.582089552" y="1468.59701493"/>
    </contour>
    <contour>
      <point x="776" y="465" type="qcurve" smooth="yes"/>
      <point x="791.671641791" y="524.701492537"/>
      <point x="807.0" y="640.537313433"/>
      <point x="807" y="698" type="qcurve" smooth="yes"/>
      <point x="807" y="702" type="line" smooth="yes"/>
      <point x="807.0" y="853.492537313"/>
      <point x="684.746268657" y="1004.0"/>
      <point x="584" y="1004" type="qcurve" smooth="yes"/>
      <point x="436.985074627" y="1004.0"/>
      <point x="231.791044776" y="748.925373134"/>
      <point x="190" y="584" type="qcurve" smooth="yes"/>
      <point x="175.074626866" y="524.298507463"/>
      <point x="160.0" y="408.208955224"/>
      <point x="160" y="350" type="qcurve" smooth="yes"/>
      <point x="160" y="346" type="line" smooth="yes"/>
      <point x="160.0" y="194.507462687"/>
      <point x="282.253731343" y="45.0"/>
      <point x="383" y="45" type="qcurve" smooth="yes"/>
      <point x="530.014925373" y="45.0"/>
      <point x="734.955223881" y="300.074626866"/>
    </contour>
  </outline>
</glyph>
<glyph name="oslash" format="1">
  <advance width="966.656"/>
  <unicode hex="00F8"/>
  <outline>
    <contour>
      <point x="995" y="1243" type="line"/>
      <point x="1061" y="1243" type="line"/>
      <point x="831" y="942" type="line"/>
      <point x="858.611940299" y="899.462686567"/>
      <point x="891.0" y="782.641791045"/>
      <point x="891" y="711" type="qcurve" smooth="yes"/>
      <point x="891" y="707" type="line" smooth="yes"/>
      <point x="891.0" y="653.268656716"/>
      <point x="878.179104478" y="542.223880597"/>
      <point x="864" y="487" type="qcurve" smooth="yes"/>
      <point x="816.985074627" y="291.47761194"/>
      <point x="562.582089552" y="-20.0"/>
      <point x="379" y="-20" type="qcurve" smooth="yes"/>
      <point x="316.313432836" y="-20.0"/>
      <point x="207.552238806" y="22.7164179104"/>
      <point x="168" y="66" type="qcurve"/>
      <point x="-29" y="-195" type="line"/>
      <point x="-94" y="-195" type="line"/>
      <point x="135" y="106" type="line"/>
      <point x="107.388059701" y="149.28358209"/>
      <point x="76.0" y="266.358208955"/>
      <point x="76" y="338" type="qcurve" smooth="yes"/>
      <point x="76" y="342" type="line" smooth="yes"/>
      <point x="76.0" y="395.731343284"/>
      <point x="88.5671641791" y="505.776119403"/>
      <point x="102" y="561" type="qcurve" smooth="yes"/>
      <point x="149.76119403" y="756.52238806"/>
      <point x="404.417910448" y="1069.0"/>
      <point x="588" y="1069" type="qcurve" smooth="yes"/>
      <point x="650.686567164" y="1069.0"/>
      <point x="758.701492537" y="1025.53731343"/>
      <point x="799" y="983" type="qcurve"/>
    </contour>
    <contour>
      <point x="186" y="174" type="qcurve"/>
      <point x="754" y="924" type="line"/>
      <point x="723.402985075" y="965.044776119"/>
      <point x="636.985074627" y="1006.0"/>
      <point x="584" y="1006" type="qcurve" smooth="yes"/>
      <point x="436.985074627" y="1006.0"/>
      <point x="229.791044776" y="750.417910448"/>
      <point x="188" y="584" type="qcurve" smooth="yes"/>
      <point x="173.074626866" y="524.298507463"/>
      <point x="158.0" y="408.208955224"/>
      <point x="158" y="350" type="qcurve" smooth="yes"/>
      <point x="158" y="346" type="line" smooth="yes"/>
      <point x="158.0" y="293.76119403"/>
      <point x="172.567164179" y="209.074626866"/>
    </contour>
    <contour>
      <point x="778" y="465" type="qcurve" smooth="yes"/>
      <point x="793.671641791" y="524.701492537"/>
      <point x="809.0" y="640.537313433"/>
      <point x="809" y="698" type="qcurve" smooth="yes"/>
      <point x="809" y="702" type="line" smooth="yes"/>
      <point x="809.0" y="754.23880597"/>
      <point x="794.179104478" y="838.417910448"/>
      <point x="780" y="872" type="qcurve"/>
      <point x="213" y="125" type="line"/>
      <point x="243.597014925" y="83.9552238806"/>
      <point x="329.268656716" y="43.0"/>
      <point x="383" y="43" type="qcurve" smooth="yes"/>
      <point x="530.014925373" y="43.0"/>
      <point x="736.955223881" y="298.582089552"/>
    </contour>
  </outline>
</glyph>
<glyph name="thorn" format="1">
  <advance width="1019.904"/>
  <unicode hex="00FE"/>
  <outline>
    <contour>
      <point x="946" y="729" type="qcurve" smooth="yes"/>
      <point x="946" y="725" type="line" smooth="yes"/>
      <point x="946.0" y="407.089552239"/>
      <point x="629.895522388" y="-20.0"/>
      <point x="459" y="-20" type="qcurve" smooth="yes"/>
      <point x="354.52238806" y="-20.0"/>
      <point x="236.208955224" y="111.164179104"/>
      <point x="178" y="244" type="qcurve"/>
      <point x="166" y="244" type="line"/>
      <point x="10" y="-385" type="line"/>
      <point x="-72" y="-385" type="line"/>
      <point x="401" y="1516" type="line"/>
      <point x="494" y="1561" type="line"/>
      <point x="295" y="758" type="line"/>
      <point x="307" y="758" type="line"/>
      <point x="436.850746269" y="933.373134328"/>
      <point x="619.179104478" y="1069.0"/>
      <point x="705" y="1069" type="qcurve" smooth="yes"/>
      <point x="833.358208955" y="1069.0"/>
      <point x="946.0" y="867.805970149"/>
    </contour>
    <contour>
      <point x="457" y="45" type="qcurve" smooth="yes"/>
      <point x="601.776119403" y="45.0"/>
      <point x="862.0" y="448.611940299"/>
      <point x="862" y="721" type="qcurve" smooth="yes"/>
      <point x="862.0" y="835.179104478"/>
      <point x="786.208955224" y="1004.0"/>
      <point x="678" y="1004" type="qcurve" smooth="yes"/>
      <point x="536.955223881" y="1004.0"/>
      <point x="207.0" y="540.835820896"/>
      <point x="207" y="408" type="qcurve" smooth="yes"/>
      <point x="207.0" y="275.910447761"/>
      <point x="352.52238806" y="45.0"/>
    </contour>
  </outline>
</glyph>
<glyph name="florin" format="1">
  <advance width="819.2"/>
  <unicode hex="0192"/>
  <outline>
    <contour>
      <point x="758" y="1487" type="qcurve" smooth="yes"/>
      <point x="809.492537313" y="1487.0"/>
      <point x="905.402985075" y="1460.41791045"/>
      <point x="936" y="1444" type="qcurve"/>
      <point x="915" y="1364" type="line"/>
      <point x="884.402985075" y="1384.14925373"/>
      <point x="798.701492537" y="1417.0"/>
      <point x="739" y="1417" type="qcurve" smooth="yes"/>
      <point x="676.313432836" y="1417.0"/>
      <point x="585.626865672" y="1336.25373134"/>
      <point x="561" y="1237" type="qcurve" smooth="yes"/>
      <point x="485" y="930" type="line"/>
      <point x="752" y="930" type="line"/>
      <point x="735" y="860" type="line"/>
      <point x="469" y="860" type="line"/>
      <point x="205" y="-197" type="line" smooth="yes"/>
      <point x="177.388059701" y="-306.701492537"/>
      <point x="49.328358209" y="-389.0"/>
      <point x="-35" y="-389" type="qcurve" smooth="yes"/>
      <point x="-70.0746268657" y="-389.0"/>
      <point x="-131.402985075" y="-372.179104478"/>
      <point x="-162" y="-358" type="qcurve"/>
      <point x="-143" y="-285" type="line"/>
      <point x="-117.626865672" y="-299.925373134"/>
      <point x="-61.0895522388" y="-317.0"/>
      <point x="-29" y="-317" type="qcurve" smooth="yes"/>
      <point x="35.1791044776" y="-317.0"/>
      <point x="106.343283582" y="-251.134328358"/>
      <point x="125" y="-178" type="qcurve" smooth="yes"/>
      <point x="385" y="860" type="line"/>
      <point x="170" y="860" type="line"/>
      <point x="186" y="930" type="line"/>
      <point x="401" y="930" type="line"/>
      <point x="477" y="1239" type="line" smooth="yes"/>
      <point x="509.089552239" y="1368.85074627"/>
      <point x="653.52238806" y="1487.0"/>
    </contour>
  </outline>
</glyph>
<glyph name="breve" format="1">
  <advance width="1024.0"/>
  <unicode hex="02D8"/>
  <outline>
    <contour>
      <point x="989" y="1532" type="qcurve"/>
      <point x="1055" y="1532" type="line"/>
      <point x="1008.73134328" y="1377.52238806"/>
      <point x="821.343283582" y="1206.0"/>
      <point x="690" y="1206" type="qcurve" smooth="yes"/>
      <point x="578.805970149" y="1206.0"/>
      <point x="455.0" y="1334.05970149"/>
      <point x="455" y="1446" type="qcurve" smooth="yes"/>
      <point x="455.0" y="1466.14925373"/>
      <point x="460.52238806" y="1508.86567164"/>
      <point x="465" y="1532" type="qcurve"/>
      <point x="526" y="1532" type="line"/>
      <point x="524.507462687" y="1520.05970149"/>
      <point x="522.0" y="1497.44776119"/>
      <point x="522" y="1487" type="qcurve" smooth="yes"/>
      <point x="522.0" y="1387.74626866"/>
      <point x="623.686567164" y="1294.0"/>
      <point x="711" y="1294" type="qcurve" smooth="yes"/>
      <point x="805.776119403" y="1294.0"/>
      <point x="943.47761194" y="1412.59701493"/>
    </contour>
  </outline>
</glyph>
<glyph name="dotaccent" format="1">
  <advance width="1024.0"/>
  <unicode hex="02D9"/>
  <outline>
    <contour>
      <point x="655" y="1366" type="line"/>
      <point x="782" y="1366" type="line"/>
      <point x="745" y="1212" type="line"/>
      <point x="618" y="1212" type="line"/>
    </contour>
  </outline>
</glyph>
<glyph name="ring" format="1">
  <advance width="1024.0"/>
  <unicode hex="02DA"/>
  <outline>
    <contour>
      <point x="723" y="1552" type="qcurve" smooth="yes"/>
      <point x="799.119402985" y="1552.0"/>
      <point x="901.0" y="1451.37313433"/>
      <point x="901" y="1376" type="qcurve" smooth="yes"/>
      <point x="901.0" y="1299.88059701"/>
      <point x="799.119402985" y="1198.0"/>
      <point x="723" y="1198" type="qcurve" smooth="yes"/>
      <point x="646.880597015" y="1198.0"/>
      <point x="545.0" y="1299.88059701"/>
      <point x="545" y="1376" type="qcurve" smooth="yes"/>
      <point x="545.0" y="1451.37313433"/>
      <point x="646.880597015" y="1552.0"/>
    </contour>
    <contour>
      <point x="723" y="1253" type="qcurve" smooth="yes"/>
      <point x="773.746268657" y="1253.0"/>
      <point x="840.0" y="1323.01492537"/>
      <point x="840" y="1376" type="qcurve" smooth="yes"/>
      <point x="840.0" y="1428.23880597"/>
      <point x="773.746268657" y="1497.0"/>
      <point x="723" y="1497" type="qcurve" smooth="yes"/>
      <point x="672.253731343" y="1497.0"/>
      <point x="606.0" y="1428.23880597"/>
      <point x="606" y="1376" type="qcurve" smooth="yes"/>
      <point x="606.0" y="1323.01492537"/>
      <point x="672.253731343" y="1253.0"/>
    </contour>
  </outline>
</glyph>
<glyph name="ogonek" format="1">
  <advance width="1024.0"/>
  <unicode hex="02DB"/>
  <outline>
    <contour>
      <point x="526" y="-276" type="qcurve"/>
      <point x="537" y="-315" type="line"/>
      <point x="469.089552239" y="-352.313432836"/>
      <point x="344.52238806" y="-389.0"/>
      <point x="299" y="-389" type="qcurve" smooth="yes"/>
      <point x="216.164179104" y="-389.0"/>
      <point x="123.0" y="-317.194029851"/>
      <point x="123" y="-256" type="qcurve" smooth="yes"/>
      <point x="123.0" y="-197.791044776"/>
      <point x="231.611940299" y="-67.1641791045"/>
      <point x="354" y="0" type="qcurve"/>
      <point x="426" y="0" type="line"/>
      <point x="317.791044776" y="-67.1641791045"/>
      <point x="217.0" y="-193.223880597"/>
      <point x="217" y="-238" type="qcurve" smooth="yes"/>
      <point x="217.0" y="-279.044776119"/>
      <point x="280.746268657" y="-326.0"/>
      <point x="330" y="-326" type="qcurve" smooth="yes"/>
      <point x="380.0" y="-326.0"/>
      <point x="470.029850746" y="-299.134328358"/>
    </contour>
  </outline>
</glyph>
<glyph name="tilde" format="1">
  <advance width="1024.0"/>
  <unicode hex="02DC"/>
  <outline>
    <contour>
      <point x="981" y="1409" type="qcurve"/>
      <point x="1034" y="1409" type="line"/>
      <point x="1017.58208955" y="1311.23880597"/>
      <point x="926.089552239" y="1214.0"/>
      <point x="844" y="1214" type="qcurve" smooth="yes"/>
      <point x="755.194029851" y="1214.0"/>
      <point x="617.179104478" y="1339.0"/>
      <point x="553" y="1339" type="qcurve" smooth="yes"/>
      <point x="507.47761194" y="1339.0"/>
      <point x="449.671641791" y="1277.95522388"/>
      <point x="434" y="1219" type="qcurve"/>
      <point x="381" y="1219" type="line"/>
      <point x="397.417910448" y="1316.76119403"/>
      <point x="490.880597015" y="1413.0"/>
      <point x="567" y="1413" type="qcurve" smooth="yes"/>
      <point x="658.791044776" y="1413.0"/>
      <point x="797.820895522" y="1288.0"/>
      <point x="862" y="1288" type="qcurve" smooth="yes"/>
      <point x="908.268656716" y="1288.0"/>
      <point x="966.074626866" y="1349.29850746"/>
    </contour>
  </outline>
</glyph>
<glyph name="quoteleft" format="1">
  <advance width="348.16"/>
  <unicode hex="2018"/>
  <unicode hex="02BB"/>
  <outline>
    <contour>
      <point x="311" y="1475" type="line"/>
      <point x="414" y="1475" type="line"/>
      <point x="399" y="1075" type="line"/>
      <point x="344" y="1075" type="line"/>
    </contour>
  </outline>
</glyph>
<glyph name="quotedblleft" format="1">
  <advance width="614.4"/>
  <unicode hex="201C"/>
  <outline>
    <contour>
      <point x="311" y="1475" type="line"/>
      <point x="414" y="1475" type="line"/>
      <point x="399" y="1075" type="line"/>
      <point x="344" y="1075" type="line"/>
    </contour>
    <contour>
      <point x="578" y="1475" type="line"/>
      <point x="680" y="1475" type="line"/>
      <point x="666" y="1075" type="line"/>
      <point x="610" y="1075" type="line"/>
    </contour>
  </outline>
</glyph>
<glyph name="daggerdbl" format="1">
  <advance width="917.504"/>
  <unicode hex="2021"/>
  <outline>
    <contour>
      <point x="623" y="1071" type="line"/>
      <point x="961" y="1096" type="line"/>
      <point x="938" y="1012" type="line"/>
      <point x="612" y="1034" type="line"/>
      <point x="561" y="737" type="line"/>
      <point x="465" y="440" type="line"/>
      <point x="803" y="463" type="line"/>
      <point x="780" y="379" type="line"/>
      <point x="455" y="403" type="line"/>
      <point x="379" y="0" type="line"/>
      <point x="276" y="0" type="line"/>
      <point x="401" y="403" type="line"/>
      <point x="63" y="379" type="line"/>
      <point x="86" y="463" type="line"/>
      <point x="412" y="440" type="line"/>
      <point x="463" y="737" type="line"/>
      <point x="559" y="1034" type="line"/>
      <point x="221" y="1012" type="line"/>
      <point x="244" y="1096" type="line"/>
      <point x="569" y="1071" type="line"/>
      <point x="645" y="1475" type="line"/>
      <point x="748" y="1475" type="line"/>
    </contour>
  </outline>
</glyph>
<glyph name="ellipsis" format="1">
  <advance width="1126.4"/>
  <unicode hex="2026"/>
  <outline>
    <contour>
      <point x="61" y="141" type="qcurve" smooth="yes"/>
      <point x="94.5820895522" y="141.0"/>
      <point x="139.0" y="97.328358209"/>
      <point x="139" y="63" type="qcurve" smooth="yes"/>
      <point x="139.0" y="29.4179104478"/>
      <point x="94.5820895522" y="-14.0"/>
      <point x="61" y="-14" type="qcurve" smooth="yes"/>
      <point x="27.4179104478" y="-14.0"/>
      <point x="-16.0" y="29.4179104478"/>
      <point x="-16" y="63" type="qcurve" smooth="yes"/>
      <point x="-16.0" y="97.328358209"/>
      <point x="27.4179104478" y="141.0"/>
    </contour>
    <contour>
      <point x="451" y="141" type="qcurve" smooth="yes"/>
      <point x="484.582089552" y="141.0"/>
      <point x="528.0" y="97.328358209"/>
      <point x="528" y="63" type="qcurve" smooth="yes"/>
      <point x="528.0" y="29.4179104478"/>
      <point x="484.582089552" y="-14.0"/>
      <point x="451" y="-14" type="qcurve" smooth="yes"/>
      <point x="417.417910448" y="-14.0"/>
      <point x="373.0" y="29.4179104478"/>
      <point x="373" y="63" type="qcurve" smooth="yes"/>
      <point x="373.0" y="97.328358209"/>
      <point x="417.417910448" y="141.0"/>
    </contour>
    <contour>
      <point x="840" y="141" type="qcurve" smooth="yes"/>
      <point x="873.582089552" y="141.0"/>
      <point x="918.0" y="97.328358209"/>
      <point x="918" y="63" type="qcurve" smooth="yes"/>
      <point x="918.0" y="29.4179104478"/>
      <point x="873.582089552" y="-14.0"/>
      <point x="840" y="-14" type="qcurve" smooth="yes"/>
      <point x="806.417910448" y="-14.0"/>
      <point x="762.0" y="29.4179104478"/>
      <point x="762" y="63" type="qcurve" smooth="yes"/>
      <point x="762.0" y="97.328358209"/>
      <point x="806.417910448" y="141.0"/>
    </contour>
  </outline>
</glyph>
<glyph name="guilsinglright" format="1">
  <advance width="526.336"/>
  <unicode hex="203A"/>
  <outline>
    <contour>
      <point x="233" y="885" type="line"/>
      <point x="461" y="524" type="line"/>
      <point x="53" y="164" type="line"/>
      <point x="-20" y="164" type="line"/>
      <point x="354" y="535" type="line"/>
      <point x="168" y="885" type="line"/>
    </contour>
  </outline>
</glyph>
<glyph name="Euro" format="1">
  <advance width="1159.168"/>
  <unicode hex="20AC"/>
  <outline>
    <contour>
      <point x="823" y="1499" type="qcurve" smooth="yes"/>
      <point x="1005.08955224" y="1499.0"/>
      <point x="1187.49253731" y="1264.97014925"/>
      <point x="1186" y="1059" type="qcurve"/>
      <point x="1104" y="1038" type="line"/>
      <point x="1104.0" y="1223.07462687"/>
      <point x="967.0" y="1427.0"/>
      <point x="817" y="1427" type="qcurve" smooth="yes"/>
      <point x="647.597014925" y="1427.0"/>
      <point x="380.880597015" y="1129.49253731"/>
      <point x="307" y="928" type="qcurve"/>
      <point x="797" y="928" type="line"/>
      <point x="778" y="850" type="line"/>
      <point x="281" y="850" type="line"/>
      <point x="262.343283582" y="787.313432836"/>
      <point x="235.71641791" y="663.701492537"/>
      <point x="229" y="604" type="qcurve"/>
      <point x="717" y="604" type="line"/>
      <point x="698" y="526" type="line"/>
      <point x="223" y="526" type="line"/>
      <point x="221.507462687" y="514.059701493"/>
      <point x="221.0" y="489.686567164"/>
      <point x="221" y="477" type="qcurve" smooth="yes"/>
      <point x="221" y="473" type="line" smooth="yes"/>
      <point x="221.0" y="297.626865672"/>
      <point x="366.567164179" y="47.0"/>
      <point x="530" y="47" type="qcurve" smooth="yes"/>
      <point x="669.552238806" y="47.0"/>
      <point x="878.895522388" y="240.328358209"/>
      <point x="958" y="406" type="qcurve"/>
      <point x="1032" y="373" type="line"/>
      <point x="940.208955224" y="184.940298507"/>
      <point x="685.940298507" y="-25.0"/>
      <point x="524" y="-25" type="qcurve" smooth="yes"/>
      <point x="334.447761194" y="-25.0"/>
      <point x="133.0" y="246.373134328"/>
      <point x="133" y="471" type="qcurve" smooth="yes"/>
      <point x="133" y="475" type="line" smooth="yes"/>
      <point x="133.0" y="545.149253731"/>
      <point x="149.343283582" y="675.671641791"/>
      <point x="168" y="760" type="qcurve" smooth="yes"/>
      <point x="230.686567164" y="1041.34328358"/>
      <point x="577.47761194" y="1499.0"/>
    </contour>
  </outline>
</glyph>
<glyph name="trademark" format="1">
  <advance width="1597.44"/>
  <unicode hex="2122"/>
  <outline>
    <contour>
      <point x="1567" y="1475" type="line"/>
      <point x="1679" y="1475" type="line"/>
      <point x="1505" y="778" type="line"/>
      <point x="1446" y="778" type="line"/>
      <point x="1608" y="1423" type="line"/>
      <point x="1602" y="1423" type="line"/>
      <point x="1206" y="778" type="line"/>
      <point x="1122" y="778" type="line"/>
      <point x="1051" y="1423" type="line"/>
      <point x="1044" y="1423" type="line"/>
      <point x="883" y="778" type="line"/>
      <point x="819" y="778" type="line"/>
      <point x="993" y="1475" type="line"/>
      <point x="1106" y="1475" type="line"/>
      <point x="1174" y="838" type="line"/>
      <point x="1180" y="838" type="line"/>
    </contour>
    <contour>
      <point x="311" y="1475" type="line"/>
      <point x="848" y="1475" type="line"/>
      <point x="834" y="1419" type="line"/>
      <point x="598" y="1419" type="line"/>
      <point x="438" y="778" type="line"/>
      <point x="373" y="778" type="line"/>
      <point x="532" y="1419" type="line"/>
      <point x="297" y="1419" type="line"/>
    </contour>
  </outline>
</glyph>
<glyph name="a.salt" format="1">
  <advance width="966.656"/>
  <outline>
    <contour>
      <point x="598" y="1061" type="qcurve" smooth="yes"/>
      <point x="735.313432836" y="1061.0"/>
      <point x="864.0" y="957.76119403"/>
      <point x="864" y="860" type="qcurve" smooth="yes"/>
      <point x="864.0" y="832.388059701"/>
      <point x="856.955223881" y="772.074626866"/>
      <point x="848" y="737" type="qcurve" smooth="yes"/>
      <point x="717" y="211" type="line" smooth="yes"/>
      <point x="714.014925373" y="195.328358209"/>
      <point x="709.0" y="159.179104478"/>
      <point x="709" y="145" type="qcurve" smooth="yes"/>
      <point x="709.0" y="106.940298507"/>
      <point x="750.223880597" y="52.4626865672"/>
      <point x="795" y="45" type="qcurve"/>
      <point x="780" y="-10" type="line"/>
      <point x="699.402985075" y="-2.53731343284"/>
      <point x="617.805970149" y="102.895522388"/>
      <point x="629" y="182" type="qcurve"/>
      <point x="614" y="182" type="line"/>
      <point x="505.791044776" y="76.776119403"/>
      <point x="344.298507463" y="-16.0"/>
      <point x="254" y="-16" type="qcurve" smooth="yes"/>
      <point x="159.223880597" y="-16.0"/>
      <point x="29.0" y="99.5373134328"/>
      <point x="29" y="207" type="qcurve" smooth="yes"/>
      <point x="29.0" y="392.074626866"/>
      <point x="377.537313433" y="624.71641791"/>
      <point x="735" y="618" type="qcurve"/>
      <point x="766" y="737" type="line" smooth="yes"/>
      <point x="773.462686567" y="766.104477612"/>
      <point x="780.0" y="816.358208955"/>
      <point x="780" y="838" type="qcurve" smooth="yes"/>
      <point x="780.0" y="918.597014925"/>
      <point x="684.746268657" y="993.0"/>
      <point x="584" y="993" type="qcurve" smooth="yes"/>
      <point x="505.641791045" y="993.0"/>
      <point x="377.268656716" y="959.044776119"/>
      <point x="281" y="918" type="qcurve"/>
      <point x="266" y="983" type="line"/>
      <point x="356.298507463" y="1019.56716418"/>
      <point x="507.701492537" y="1061.0"/>
    </contour>
    <contour>
      <point x="651" y="276" type="qcurve"/>
      <point x="723" y="561" type="line"/>
      <point x="380.462686567" y="568.462686567"/>
      <point x="115.0" y="349.328358209"/>
      <point x="115" y="215" type="qcurve" smooth="yes"/>
      <point x="115.0" y="135.895522388"/>
      <point x="211.119402985" y="47.0"/>
      <point x="285" y="47" type="qcurve" smooth="yes"/>
      <point x="362.611940299" y="47.0"/>
      <point x="541.298507463" y="158.835820896"/>
    </contour>
  </outline>
</glyph>
<glyph name="registered" format="1">
  <advance width="1089.536"/>
  <outline>
    <contour>
      <point x="725" y="1006" type="qcurve"/>
      <point x="879" y="782" type="line"/>
      <point x="801" y="782" type="line"/>
      <point x="649" y="1001" type="line"/>
      <point x="586" y="1001" type="line"/>
      <point x="586" y="782" type="line"/>
      <point x="518" y="782" type="line"/>
      <point x="518" y="1292" type="line"/>
      <point x="680" y="1292" type="line" smooth="yes"/>
      <point x="759.104477612" y="1292.0"/>
      <point x="852.0" y="1217.14925373"/>
      <point x="852" y="1147" type="qcurve" smooth="yes"/>
      <point x="852.0" y="1087.29850746"/>
      <point x="781.71641791" y="1014.95522388"/>
    </contour>
    <contour>
      <point x="670" y="1489" type="qcurve" smooth="yes"/>
      <point x="862.537313433" y="1489.0"/>
      <point x="1126.0" y="1224.53731343"/>
      <point x="1126" y="1032" type="qcurve" smooth="yes"/>
      <point x="1126.0" y="839.462686567"/>
      <point x="862.537313433" y="575.0"/>
      <point x="670" y="575" type="qcurve" smooth="yes"/>
      <point x="477.462686567" y="575.0"/>
      <point x="213.0" y="839.462686567"/>
      <point x="213" y="1032" type="qcurve" smooth="yes"/>
      <point x="213.0" y="1224.53731343"/>
      <point x="477.462686567" y="1489.0"/>
    </contour>
    <contour>
      <point x="670" y="623" type="qcurve" smooth="yes"/>
      <point x="842.388059701" y="623.0"/>
      <point x="1075.0" y="859.611940299"/>
      <point x="1075" y="1032" type="qcurve" smooth="yes"/>
      <point x="1075.0" y="1205.13432836"/>
      <point x="842.388059701" y="1442.0"/>
      <point x="670" y="1442" type="qcurve" smooth="yes"/>
      <point x="496.865671642" y="1442.0"/>
      <point x="264.0" y="1205.13432836"/>
      <point x="264" y="1032" type="qcurve" smooth="yes"/>
      <point x="264.0" y="859.611940299"/>
      <point x="496.865671642" y="623.0"/>
    </contour>
    <contour>
      <point x="680" y="1061" type="line" smooth="yes"/>
      <point x="728.507462687" y="1061.0"/>
      <point x="784.0" y="1102.2238806"/>
      <point x="784" y="1147" type="qcurve" smooth="yes"/>
      <point x="784.0" y="1189.53731343"/>
      <point x="730.23880597" y="1233.0"/>
      <point x="678" y="1233" type="qcurve" smooth="yes"/>
      <point x="586" y="1233" type="line"/>
      <point x="586" y="1061" type="line"/>
    </contour>
  </outline>
</glyph>
